M48
; DRILL file {KiCad (5.1.5)-3} date 27/06/2020 20:36:39
; FORMAT={-:-/ absolute / metric / decimal}
; #@! TF.CreationDate,2020-06-27T20:36:39+01:00
; #@! TF.GenerationSoftware,Kicad,Pcbnew,(5.1.5)-3
FMAT,2
METRIC
T1C0.400
T2C0.500
T3C0.600
T4C0.750
T5C0.800
T6C0.850
T7C0.900
T8C1.000
T9C1.100
T10C1.300
T11C1.500
T12C1.520
T13C2.200
%
G90
G05
T1
X177.5Y-73.75
T2
X183.75Y-74.0
X184.0Y-62.1
T3
X188.75Y-77.75
X190.75Y-77.75
T4
X195.5Y-87.46
X195.5Y-88.73
X195.5Y-90.0
X189.25Y-81.75
X189.25Y-83.02
X189.25Y-84.29
T5
X177.0Y-84.5
X184.62Y-84.5
T6
X191.15Y-106.35
X196.15Y-106.35
T7
X197.5Y-58.5
X197.5Y-60.5
X197.5Y-62.5
X172.5Y-76.46
X172.5Y-79.0
T8
X198.0Y-70.75
X198.0Y-73.29
X198.0Y-75.83
X198.0Y-78.37
X173.7Y-88.3
X173.7Y-100.3
X172.21Y-63.0
X172.21Y-65.54
X172.21Y-68.08
X172.21Y-70.62
X174.75Y-63.0
X174.75Y-65.54
X174.75Y-68.08
X174.75Y-70.62
X175.5Y-106.5
X178.0Y-106.5
T9
X177.5Y-76.75
X177.5Y-81.25
X184.0Y-76.75
X184.0Y-81.25
T10
X171.75Y-94.25
X185.9Y-100.3
X185.95Y-88.25
T11
X197.5Y-56.4
X197.5Y-64.6
T12
X196.0Y-94.42
X196.0Y-99.5
T13
X173.0Y-83.0
X185.0Y-107.5
X185.0Y-57.5
X197.0Y-83.0
T3
G00X190.15Y-109.4
M15
G01X190.15Y-108.7
M16
G05
G00X197.15Y-108.7
M15
G01X197.15Y-109.4
M16
G05
T0
M30
