G04 #@! TF.GenerationSoftware,KiCad,Pcbnew,(5.1.5)-3*
G04 #@! TF.CreationDate,2020-06-27T20:36:36+01:00*
G04 #@! TF.ProjectId,Schematic,53636865-6d61-4746-9963-2e6b69636164,v0.1*
G04 #@! TF.SameCoordinates,Original*
G04 #@! TF.FileFunction,Soldermask,Bot*
G04 #@! TF.FilePolarity,Negative*
%FSLAX46Y46*%
G04 Gerber Fmt 4.6, Leading zero omitted, Abs format (unit mm)*
G04 Created by KiCad (PCBNEW (5.1.5)-3) date 2020-06-27 20:36:36*
%MOMM*%
%LPD*%
G04 APERTURE LIST*
G04 #@! TA.AperFunction,Profile*
%ADD10C,0.050000*%
G04 #@! TD*
%ADD11C,0.100000*%
G04 APERTURE END LIST*
D10*
X200000000Y-110000000D02*
X200000000Y-110500000D01*
X170000000Y-110000000D02*
X170000000Y-110500000D01*
X200000000Y-55000000D02*
X200000000Y-54500000D01*
X170000000Y-55000000D02*
X170000000Y-54500000D01*
X200000000Y-55000000D02*
X200000000Y-80000000D01*
X170000000Y-80000000D02*
X170000000Y-55000000D01*
X170000000Y-110000000D02*
X170000000Y-80000000D01*
X200000000Y-110500000D02*
X170000000Y-110500000D01*
X200000000Y-80000000D02*
X200000000Y-110000000D01*
X170000000Y-54500000D02*
X200000000Y-54500000D01*
D11*
G36*
X190277618Y-108058420D02*
G01*
X190368404Y-108085960D01*
X190400336Y-108095646D01*
X190513425Y-108156094D01*
X190612554Y-108237446D01*
X190693906Y-108336575D01*
X190754354Y-108449664D01*
X190764040Y-108481596D01*
X190791580Y-108572382D01*
X190801000Y-108668027D01*
X190801000Y-109431973D01*
X190791580Y-109527618D01*
X190764040Y-109618404D01*
X190754354Y-109650336D01*
X190693906Y-109763425D01*
X190612554Y-109862553D01*
X190513424Y-109943906D01*
X190400335Y-110004354D01*
X190368403Y-110014040D01*
X190277617Y-110041580D01*
X190150000Y-110054149D01*
X190022382Y-110041580D01*
X189931596Y-110014040D01*
X189899664Y-110004354D01*
X189786575Y-109943906D01*
X189687447Y-109862554D01*
X189606094Y-109763424D01*
X189545646Y-109650335D01*
X189535960Y-109618403D01*
X189508420Y-109527617D01*
X189499000Y-109431972D01*
X189499000Y-108668027D01*
X189508420Y-108572382D01*
X189545645Y-108449668D01*
X189570608Y-108402966D01*
X189606095Y-108336575D01*
X189687447Y-108237446D01*
X189786576Y-108156094D01*
X189899665Y-108095646D01*
X189931597Y-108085960D01*
X190022383Y-108058420D01*
X190150000Y-108045851D01*
X190277618Y-108058420D01*
G37*
G36*
X197277617Y-108058420D02*
G01*
X197368403Y-108085960D01*
X197400335Y-108095646D01*
X197513424Y-108156094D01*
X197612554Y-108237447D01*
X197693906Y-108336575D01*
X197754354Y-108449664D01*
X197764040Y-108481596D01*
X197791580Y-108572382D01*
X197801000Y-108668027D01*
X197801000Y-109431973D01*
X197791580Y-109527618D01*
X197764040Y-109618404D01*
X197754354Y-109650336D01*
X197693906Y-109763425D01*
X197612554Y-109862554D01*
X197513425Y-109943906D01*
X197400336Y-110004354D01*
X197368404Y-110014040D01*
X197277618Y-110041580D01*
X197150000Y-110054149D01*
X197022383Y-110041580D01*
X196931597Y-110014040D01*
X196899665Y-110004354D01*
X196786576Y-109943906D01*
X196687447Y-109862554D01*
X196606095Y-109763425D01*
X196553216Y-109664496D01*
X196545645Y-109650332D01*
X196508420Y-109527618D01*
X196499000Y-109431973D01*
X196499000Y-108668028D01*
X196508420Y-108572383D01*
X196545645Y-108449669D01*
X196545646Y-108449665D01*
X196606094Y-108336576D01*
X196687447Y-108237446D01*
X196786575Y-108156094D01*
X196899664Y-108095646D01*
X196931596Y-108085960D01*
X197022382Y-108058420D01*
X197150000Y-108045851D01*
X197277617Y-108058420D01*
G37*
G36*
X185275880Y-105259776D02*
G01*
X185656593Y-105335504D01*
X186066249Y-105505189D01*
X186434929Y-105751534D01*
X186748466Y-106065071D01*
X186994811Y-106433751D01*
X187164496Y-106843407D01*
X187251000Y-107278296D01*
X187251000Y-107721704D01*
X187164496Y-108156593D01*
X186994811Y-108566249D01*
X186748466Y-108934929D01*
X186434929Y-109248466D01*
X186066249Y-109494811D01*
X185656593Y-109664496D01*
X185275880Y-109740224D01*
X185221705Y-109751000D01*
X184778295Y-109751000D01*
X184724120Y-109740224D01*
X184343407Y-109664496D01*
X183933751Y-109494811D01*
X183565071Y-109248466D01*
X183251534Y-108934929D01*
X183005189Y-108566249D01*
X182835504Y-108156593D01*
X182749000Y-107721704D01*
X182749000Y-107278296D01*
X182835504Y-106843407D01*
X183005189Y-106433751D01*
X183251534Y-106065071D01*
X183565071Y-105751534D01*
X183933751Y-105505189D01*
X184343407Y-105335504D01*
X184724120Y-105259776D01*
X184778295Y-105249000D01*
X185221705Y-105249000D01*
X185275880Y-105259776D01*
G37*
G36*
X178176626Y-105462037D02*
G01*
X178346465Y-105513557D01*
X178346467Y-105513558D01*
X178502989Y-105597221D01*
X178640186Y-105709814D01*
X178723448Y-105811271D01*
X178752778Y-105847009D01*
X178752779Y-105847011D01*
X178825161Y-105982426D01*
X178836443Y-106003534D01*
X178887963Y-106173373D01*
X178887963Y-106173375D01*
X178897832Y-106273571D01*
X178901000Y-106305742D01*
X178901000Y-106694257D01*
X178887963Y-106826626D01*
X178836443Y-106996466D01*
X178752778Y-107152991D01*
X178723448Y-107188729D01*
X178640186Y-107290186D01*
X178545250Y-107368097D01*
X178502991Y-107402778D01*
X178346466Y-107486443D01*
X178176627Y-107537963D01*
X178000000Y-107555359D01*
X177823374Y-107537963D01*
X177653535Y-107486443D01*
X177497010Y-107402778D01*
X177359815Y-107290185D01*
X177247222Y-107152991D01*
X177163557Y-106996466D01*
X177112037Y-106826627D01*
X177099000Y-106694258D01*
X177099000Y-106305743D01*
X177112037Y-106173374D01*
X177163557Y-106003535D01*
X177247222Y-105847010D01*
X177247223Y-105847009D01*
X177359814Y-105709814D01*
X177461271Y-105626552D01*
X177497009Y-105597222D01*
X177653534Y-105513557D01*
X177823373Y-105462037D01*
X178000000Y-105444641D01*
X178176626Y-105462037D01*
G37*
G36*
X176258600Y-105452989D02*
G01*
X176291652Y-105463015D01*
X176322103Y-105479292D01*
X176348799Y-105501201D01*
X176370708Y-105527897D01*
X176386985Y-105558348D01*
X176397011Y-105591400D01*
X176401000Y-105631903D01*
X176401000Y-107368097D01*
X176397011Y-107408600D01*
X176386985Y-107441652D01*
X176370708Y-107472103D01*
X176348799Y-107498799D01*
X176322103Y-107520708D01*
X176291652Y-107536985D01*
X176258600Y-107547011D01*
X176218097Y-107551000D01*
X174781903Y-107551000D01*
X174741400Y-107547011D01*
X174708348Y-107536985D01*
X174677897Y-107520708D01*
X174651201Y-107498799D01*
X174629292Y-107472103D01*
X174613015Y-107441652D01*
X174602989Y-107408600D01*
X174599000Y-107368097D01*
X174599000Y-105631903D01*
X174602989Y-105591400D01*
X174613015Y-105558348D01*
X174629292Y-105527897D01*
X174651201Y-105501201D01*
X174677897Y-105479292D01*
X174708348Y-105463015D01*
X174741400Y-105452989D01*
X174781903Y-105449000D01*
X176218097Y-105449000D01*
X176258600Y-105452989D01*
G37*
G36*
X191376348Y-105603820D02*
G01*
X191376350Y-105603821D01*
X191376351Y-105603821D01*
X191517574Y-105662317D01*
X191517577Y-105662319D01*
X191644669Y-105747239D01*
X191752761Y-105855331D01*
X191837681Y-105982423D01*
X191837683Y-105982426D01*
X191896179Y-106123649D01*
X191896180Y-106123652D01*
X191926000Y-106273569D01*
X191926000Y-106426429D01*
X191896179Y-106576351D01*
X191837683Y-106717574D01*
X191837681Y-106717577D01*
X191752761Y-106844669D01*
X191644669Y-106952761D01*
X191517577Y-107037681D01*
X191517574Y-107037683D01*
X191376351Y-107096179D01*
X191376350Y-107096179D01*
X191376348Y-107096180D01*
X191226431Y-107126000D01*
X191073569Y-107126000D01*
X190923652Y-107096180D01*
X190923650Y-107096179D01*
X190923649Y-107096179D01*
X190782426Y-107037683D01*
X190782423Y-107037681D01*
X190655331Y-106952761D01*
X190547239Y-106844669D01*
X190462319Y-106717577D01*
X190462317Y-106717574D01*
X190403821Y-106576351D01*
X190374000Y-106426429D01*
X190374000Y-106273569D01*
X190403820Y-106123652D01*
X190403821Y-106123649D01*
X190462317Y-105982426D01*
X190462319Y-105982423D01*
X190547239Y-105855331D01*
X190655331Y-105747239D01*
X190782423Y-105662319D01*
X190782426Y-105662317D01*
X190923649Y-105603821D01*
X190923650Y-105603821D01*
X190923652Y-105603820D01*
X191073569Y-105574000D01*
X191226431Y-105574000D01*
X191376348Y-105603820D01*
G37*
G36*
X196376348Y-105603820D02*
G01*
X196376350Y-105603821D01*
X196376351Y-105603821D01*
X196517574Y-105662317D01*
X196517577Y-105662319D01*
X196644669Y-105747239D01*
X196752761Y-105855331D01*
X196837681Y-105982423D01*
X196837683Y-105982426D01*
X196896179Y-106123649D01*
X196896180Y-106123652D01*
X196926000Y-106273569D01*
X196926000Y-106426429D01*
X196896179Y-106576351D01*
X196837683Y-106717574D01*
X196837681Y-106717577D01*
X196752761Y-106844669D01*
X196644669Y-106952761D01*
X196517577Y-107037681D01*
X196517574Y-107037683D01*
X196376351Y-107096179D01*
X196376350Y-107096179D01*
X196376348Y-107096180D01*
X196226431Y-107126000D01*
X196073569Y-107126000D01*
X195923652Y-107096180D01*
X195923650Y-107096179D01*
X195923649Y-107096179D01*
X195782426Y-107037683D01*
X195782423Y-107037681D01*
X195655331Y-106952761D01*
X195547239Y-106844669D01*
X195462319Y-106717577D01*
X195462317Y-106717574D01*
X195403821Y-106576351D01*
X195374000Y-106426429D01*
X195374000Y-106273569D01*
X195403820Y-106123652D01*
X195403821Y-106123649D01*
X195462317Y-105982426D01*
X195462319Y-105982423D01*
X195547239Y-105855331D01*
X195655331Y-105747239D01*
X195782423Y-105662319D01*
X195782426Y-105662317D01*
X195923649Y-105603821D01*
X195923650Y-105603821D01*
X195923652Y-105603820D01*
X196073569Y-105574000D01*
X196226431Y-105574000D01*
X196376348Y-105603820D01*
G37*
G36*
X186202585Y-98778802D02*
G01*
X186352410Y-98808604D01*
X186634674Y-98925521D01*
X186888705Y-99095259D01*
X187104741Y-99311295D01*
X187274479Y-99565326D01*
X187391396Y-99847590D01*
X187451000Y-100147240D01*
X187451000Y-100452760D01*
X187391396Y-100752410D01*
X187274479Y-101034674D01*
X187104741Y-101288705D01*
X186888705Y-101504741D01*
X186634674Y-101674479D01*
X186352410Y-101791396D01*
X186202585Y-101821198D01*
X186052761Y-101851000D01*
X185747239Y-101851000D01*
X185597415Y-101821198D01*
X185447590Y-101791396D01*
X185165326Y-101674479D01*
X184911295Y-101504741D01*
X184695259Y-101288705D01*
X184525521Y-101034674D01*
X184408604Y-100752410D01*
X184349000Y-100452760D01*
X184349000Y-100147240D01*
X184408604Y-99847590D01*
X184525521Y-99565326D01*
X184695259Y-99311295D01*
X184911295Y-99095259D01*
X185165326Y-98925521D01*
X185447590Y-98808604D01*
X185597415Y-98778802D01*
X185747239Y-98749000D01*
X186052761Y-98749000D01*
X186202585Y-98778802D01*
G37*
G36*
X174079487Y-99048996D02*
G01*
X174316253Y-99147068D01*
X174316255Y-99147069D01*
X174529339Y-99289447D01*
X174710553Y-99470661D01*
X174852932Y-99683747D01*
X174951004Y-99920513D01*
X175001000Y-100171861D01*
X175001000Y-100428139D01*
X174951004Y-100679487D01*
X174920798Y-100752410D01*
X174852931Y-100916255D01*
X174710553Y-101129339D01*
X174529339Y-101310553D01*
X174316255Y-101452931D01*
X174316254Y-101452932D01*
X174316253Y-101452932D01*
X174079487Y-101551004D01*
X173828139Y-101601000D01*
X173571861Y-101601000D01*
X173320513Y-101551004D01*
X173083747Y-101452932D01*
X173083746Y-101452932D01*
X173083745Y-101452931D01*
X172870661Y-101310553D01*
X172689447Y-101129339D01*
X172547069Y-100916255D01*
X172479202Y-100752410D01*
X172448996Y-100679487D01*
X172399000Y-100428139D01*
X172399000Y-100171861D01*
X172448996Y-99920513D01*
X172547068Y-99683747D01*
X172689447Y-99470661D01*
X172870661Y-99289447D01*
X173083745Y-99147069D01*
X173083747Y-99147068D01*
X173320513Y-99048996D01*
X173571861Y-98999000D01*
X173828139Y-98999000D01*
X174079487Y-99048996D01*
G37*
G36*
X197551000Y-101051000D02*
G01*
X194449000Y-101051000D01*
X194449000Y-97949000D01*
X197551000Y-97949000D01*
X197551000Y-101051000D01*
G37*
G36*
X196302585Y-92898802D02*
G01*
X196452410Y-92928604D01*
X196734674Y-93045521D01*
X196988705Y-93215259D01*
X197204741Y-93431295D01*
X197374479Y-93685326D01*
X197491396Y-93967590D01*
X197551000Y-94267240D01*
X197551000Y-94572760D01*
X197491396Y-94872410D01*
X197374479Y-95154674D01*
X197204741Y-95408705D01*
X196988705Y-95624741D01*
X196734674Y-95794479D01*
X196452410Y-95911396D01*
X196302585Y-95941198D01*
X196152761Y-95971000D01*
X195847239Y-95971000D01*
X195697415Y-95941198D01*
X195547590Y-95911396D01*
X195265326Y-95794479D01*
X195011295Y-95624741D01*
X194795259Y-95408705D01*
X194625521Y-95154674D01*
X194508604Y-94872410D01*
X194449000Y-94572760D01*
X194449000Y-94267240D01*
X194508604Y-93967590D01*
X194625521Y-93685326D01*
X194795259Y-93431295D01*
X195011295Y-93215259D01*
X195265326Y-93045521D01*
X195547590Y-92928604D01*
X195697415Y-92898802D01*
X195847239Y-92869000D01*
X196152761Y-92869000D01*
X196302585Y-92898802D01*
G37*
G36*
X172052585Y-92728802D02*
G01*
X172202410Y-92758604D01*
X172484674Y-92875521D01*
X172738705Y-93045259D01*
X172954741Y-93261295D01*
X173124479Y-93515326D01*
X173241396Y-93797590D01*
X173301000Y-94097240D01*
X173301000Y-94402760D01*
X173241396Y-94702410D01*
X173124479Y-94984674D01*
X172954741Y-95238705D01*
X172738705Y-95454741D01*
X172484674Y-95624479D01*
X172202410Y-95741396D01*
X172052585Y-95771198D01*
X171902761Y-95801000D01*
X171597239Y-95801000D01*
X171447415Y-95771198D01*
X171297590Y-95741396D01*
X171015326Y-95624479D01*
X170761295Y-95454741D01*
X170545259Y-95238705D01*
X170375521Y-94984674D01*
X170258604Y-94702410D01*
X170199000Y-94402760D01*
X170199000Y-94097240D01*
X170258604Y-93797590D01*
X170375521Y-93515326D01*
X170545259Y-93261295D01*
X170761295Y-93045259D01*
X171015326Y-92875521D01*
X171297590Y-92758604D01*
X171447415Y-92728802D01*
X171597239Y-92699000D01*
X171902761Y-92699000D01*
X172052585Y-92728802D01*
G37*
G36*
X195837916Y-86892334D02*
G01*
X195946492Y-86925271D01*
X195946495Y-86925272D01*
X195982601Y-86944571D01*
X196046557Y-86978756D01*
X196134264Y-87050736D01*
X196206244Y-87138443D01*
X196240429Y-87202399D01*
X196259728Y-87238505D01*
X196259729Y-87238508D01*
X196292666Y-87347084D01*
X196303787Y-87460000D01*
X196292666Y-87572916D01*
X196259729Y-87681492D01*
X196259728Y-87681495D01*
X196258525Y-87683745D01*
X196206244Y-87781557D01*
X196134264Y-87869264D01*
X196046557Y-87941244D01*
X195965141Y-87984761D01*
X195944766Y-87998375D01*
X195927439Y-88015702D01*
X195913826Y-88036076D01*
X195904448Y-88058715D01*
X195899668Y-88082748D01*
X195899668Y-88107252D01*
X195904448Y-88131285D01*
X195913826Y-88153924D01*
X195927440Y-88174299D01*
X195944767Y-88191626D01*
X195965141Y-88205239D01*
X196046557Y-88248756D01*
X196134264Y-88320736D01*
X196206244Y-88408443D01*
X196240429Y-88472399D01*
X196259728Y-88508505D01*
X196259729Y-88508508D01*
X196292666Y-88617084D01*
X196303787Y-88730000D01*
X196292666Y-88842916D01*
X196270418Y-88916255D01*
X196259728Y-88951495D01*
X196241994Y-88984672D01*
X196206244Y-89051557D01*
X196134264Y-89139264D01*
X196057354Y-89202383D01*
X196040035Y-89219702D01*
X196026421Y-89240077D01*
X196017043Y-89262716D01*
X196012263Y-89286749D01*
X196012263Y-89311253D01*
X196017043Y-89335286D01*
X196026421Y-89357925D01*
X196040034Y-89378299D01*
X196057361Y-89395626D01*
X196077736Y-89409240D01*
X196100375Y-89418618D01*
X196124408Y-89423398D01*
X196136660Y-89424000D01*
X196301000Y-89424000D01*
X196301000Y-90576000D01*
X194699000Y-90576000D01*
X194699000Y-89424000D01*
X194863340Y-89424000D01*
X194887726Y-89421598D01*
X194911175Y-89414485D01*
X194932786Y-89402934D01*
X194951728Y-89387389D01*
X194967273Y-89368447D01*
X194978824Y-89346836D01*
X194985937Y-89323387D01*
X194988339Y-89299001D01*
X194985937Y-89274615D01*
X194978824Y-89251166D01*
X194967273Y-89229555D01*
X194951728Y-89210613D01*
X194942655Y-89202391D01*
X194865736Y-89139264D01*
X194793756Y-89051557D01*
X194758006Y-88984672D01*
X194740272Y-88951495D01*
X194729582Y-88916255D01*
X194707334Y-88842916D01*
X194696213Y-88730000D01*
X194707334Y-88617084D01*
X194740271Y-88508508D01*
X194740272Y-88508505D01*
X194759571Y-88472399D01*
X194793756Y-88408443D01*
X194865736Y-88320736D01*
X194953443Y-88248756D01*
X195034859Y-88205239D01*
X195055234Y-88191625D01*
X195072561Y-88174298D01*
X195086174Y-88153924D01*
X195095552Y-88131285D01*
X195100332Y-88107252D01*
X195100332Y-88082748D01*
X195095552Y-88058715D01*
X195086174Y-88036076D01*
X195072560Y-88015701D01*
X195055233Y-87998374D01*
X195034859Y-87984761D01*
X194953443Y-87941244D01*
X194865736Y-87869264D01*
X194793756Y-87781557D01*
X194741475Y-87683745D01*
X194740272Y-87681495D01*
X194740271Y-87681492D01*
X194707334Y-87572916D01*
X194696213Y-87460000D01*
X194707334Y-87347084D01*
X194740271Y-87238508D01*
X194740272Y-87238505D01*
X194759571Y-87202399D01*
X194793756Y-87138443D01*
X194865736Y-87050736D01*
X194953443Y-86978756D01*
X195017399Y-86944571D01*
X195053505Y-86925272D01*
X195053508Y-86925271D01*
X195162084Y-86892334D01*
X195246702Y-86884000D01*
X195753298Y-86884000D01*
X195837916Y-86892334D01*
G37*
G36*
X186252585Y-86728802D02*
G01*
X186402410Y-86758604D01*
X186684674Y-86875521D01*
X186938705Y-87045259D01*
X187154741Y-87261295D01*
X187324479Y-87515326D01*
X187434754Y-87781555D01*
X187441396Y-87797591D01*
X187501000Y-88097239D01*
X187501000Y-88402761D01*
X187471198Y-88552585D01*
X187441396Y-88702410D01*
X187324479Y-88984674D01*
X187154741Y-89238705D01*
X186938705Y-89454741D01*
X186684674Y-89624479D01*
X186402410Y-89741396D01*
X186252585Y-89771198D01*
X186102761Y-89801000D01*
X185797239Y-89801000D01*
X185647415Y-89771198D01*
X185497590Y-89741396D01*
X185215326Y-89624479D01*
X184961295Y-89454741D01*
X184745259Y-89238705D01*
X184575521Y-88984674D01*
X184458604Y-88702410D01*
X184428802Y-88552585D01*
X184399000Y-88402761D01*
X184399000Y-88097239D01*
X184458604Y-87797591D01*
X184465246Y-87781555D01*
X184575521Y-87515326D01*
X184745259Y-87261295D01*
X184961295Y-87045259D01*
X185215326Y-86875521D01*
X185497590Y-86758604D01*
X185647415Y-86728802D01*
X185797239Y-86699000D01*
X186102761Y-86699000D01*
X186252585Y-86728802D01*
G37*
G36*
X174079487Y-87048996D02*
G01*
X174295430Y-87138443D01*
X174316255Y-87147069D01*
X174529339Y-87289447D01*
X174710553Y-87470661D01*
X174851428Y-87681495D01*
X174852932Y-87683747D01*
X174951004Y-87920513D01*
X175001000Y-88171861D01*
X175001000Y-88428139D01*
X174951004Y-88679487D01*
X174883310Y-88842914D01*
X174852931Y-88916255D01*
X174710553Y-89129339D01*
X174529339Y-89310553D01*
X174316255Y-89452931D01*
X174316254Y-89452932D01*
X174316253Y-89452932D01*
X174079487Y-89551004D01*
X173828139Y-89601000D01*
X173571861Y-89601000D01*
X173320513Y-89551004D01*
X173083747Y-89452932D01*
X173083746Y-89452932D01*
X173083745Y-89452931D01*
X172870661Y-89310553D01*
X172689447Y-89129339D01*
X172547069Y-88916255D01*
X172516690Y-88842914D01*
X172448996Y-88679487D01*
X172399000Y-88428139D01*
X172399000Y-88171861D01*
X172448996Y-87920513D01*
X172547068Y-87683747D01*
X172548573Y-87681495D01*
X172689447Y-87470661D01*
X172870661Y-87289447D01*
X173083745Y-87147069D01*
X173104570Y-87138443D01*
X173320513Y-87048996D01*
X173571861Y-86999000D01*
X173828139Y-86999000D01*
X174079487Y-87048996D01*
G37*
G36*
X184868228Y-83681703D02*
G01*
X185023100Y-83745853D01*
X185162481Y-83838985D01*
X185281015Y-83957519D01*
X185374147Y-84096900D01*
X185438297Y-84251772D01*
X185471000Y-84416184D01*
X185471000Y-84583816D01*
X185438297Y-84748228D01*
X185374147Y-84903100D01*
X185281015Y-85042481D01*
X185162481Y-85161015D01*
X185023100Y-85254147D01*
X184868228Y-85318297D01*
X184703816Y-85351000D01*
X184536184Y-85351000D01*
X184371772Y-85318297D01*
X184216900Y-85254147D01*
X184077519Y-85161015D01*
X183958985Y-85042481D01*
X183865853Y-84903100D01*
X183801703Y-84748228D01*
X183769000Y-84583816D01*
X183769000Y-84416184D01*
X183801703Y-84251772D01*
X183865853Y-84096900D01*
X183958985Y-83957519D01*
X184077519Y-83838985D01*
X184216900Y-83745853D01*
X184371772Y-83681703D01*
X184536184Y-83649000D01*
X184703816Y-83649000D01*
X184868228Y-83681703D01*
G37*
G36*
X177851000Y-85351000D02*
G01*
X176149000Y-85351000D01*
X176149000Y-83649000D01*
X177851000Y-83649000D01*
X177851000Y-85351000D01*
G37*
G36*
X173237616Y-80752165D02*
G01*
X173656593Y-80835504D01*
X174066249Y-81005189D01*
X174434929Y-81251534D01*
X174748466Y-81565071D01*
X174994811Y-81933751D01*
X175164496Y-82343407D01*
X175251000Y-82778296D01*
X175251000Y-83221704D01*
X175164496Y-83656593D01*
X174994811Y-84066249D01*
X174748466Y-84434929D01*
X174434929Y-84748466D01*
X174066249Y-84994811D01*
X173656593Y-85164496D01*
X173275880Y-85240224D01*
X173221705Y-85251000D01*
X172778295Y-85251000D01*
X172724120Y-85240224D01*
X172343407Y-85164496D01*
X171933751Y-84994811D01*
X171565071Y-84748466D01*
X171251534Y-84434929D01*
X171005189Y-84066249D01*
X170835504Y-83656593D01*
X170749000Y-83221704D01*
X170749000Y-82778296D01*
X170835504Y-82343407D01*
X171005189Y-81933751D01*
X171251534Y-81565071D01*
X171565071Y-81251534D01*
X171933751Y-81005189D01*
X172343407Y-80835504D01*
X172762384Y-80752165D01*
X172778295Y-80749000D01*
X173221705Y-80749000D01*
X173237616Y-80752165D01*
G37*
G36*
X197237616Y-80752165D02*
G01*
X197656593Y-80835504D01*
X198066249Y-81005189D01*
X198434929Y-81251534D01*
X198748466Y-81565071D01*
X198994811Y-81933751D01*
X199164496Y-82343407D01*
X199251000Y-82778296D01*
X199251000Y-83221704D01*
X199164496Y-83656593D01*
X198994811Y-84066249D01*
X198748466Y-84434929D01*
X198434929Y-84748466D01*
X198066249Y-84994811D01*
X197656593Y-85164496D01*
X197275880Y-85240224D01*
X197221705Y-85251000D01*
X196778295Y-85251000D01*
X196724120Y-85240224D01*
X196343407Y-85164496D01*
X195933751Y-84994811D01*
X195565071Y-84748466D01*
X195251534Y-84434929D01*
X195005189Y-84066249D01*
X194835504Y-83656593D01*
X194749000Y-83221704D01*
X194749000Y-82778296D01*
X194835504Y-82343407D01*
X195005189Y-81933751D01*
X195251534Y-81565071D01*
X195565071Y-81251534D01*
X195933751Y-81005189D01*
X196343407Y-80835504D01*
X196762384Y-80752165D01*
X196778295Y-80749000D01*
X197221705Y-80749000D01*
X197237616Y-80752165D01*
G37*
G36*
X190051000Y-82326000D02*
G01*
X189886660Y-82326000D01*
X189862274Y-82328402D01*
X189838825Y-82335515D01*
X189817214Y-82347066D01*
X189798272Y-82362611D01*
X189782727Y-82381553D01*
X189771176Y-82403164D01*
X189764063Y-82426613D01*
X189761661Y-82450999D01*
X189764063Y-82475385D01*
X189771176Y-82498834D01*
X189782727Y-82520445D01*
X189798272Y-82539387D01*
X189807345Y-82547609D01*
X189884264Y-82610736D01*
X189956244Y-82698443D01*
X189990429Y-82762399D01*
X190009728Y-82798505D01*
X190009729Y-82798508D01*
X190042666Y-82907084D01*
X190053787Y-83020000D01*
X190042666Y-83132916D01*
X190015731Y-83221705D01*
X190009728Y-83241495D01*
X189990429Y-83277601D01*
X189956244Y-83341557D01*
X189884264Y-83429264D01*
X189796557Y-83501244D01*
X189715141Y-83544761D01*
X189694766Y-83558375D01*
X189677439Y-83575702D01*
X189663826Y-83596076D01*
X189654448Y-83618715D01*
X189649668Y-83642748D01*
X189649668Y-83667252D01*
X189654448Y-83691285D01*
X189663826Y-83713924D01*
X189677440Y-83734299D01*
X189694767Y-83751626D01*
X189715141Y-83765239D01*
X189796557Y-83808756D01*
X189884264Y-83880736D01*
X189956244Y-83968443D01*
X189990429Y-84032399D01*
X190009728Y-84068505D01*
X190009729Y-84068508D01*
X190042666Y-84177084D01*
X190053787Y-84290000D01*
X190042666Y-84402916D01*
X190009729Y-84511492D01*
X190009728Y-84511495D01*
X189990429Y-84547601D01*
X189956244Y-84611557D01*
X189884264Y-84699264D01*
X189796557Y-84771244D01*
X189732601Y-84805429D01*
X189696495Y-84824728D01*
X189696492Y-84824729D01*
X189587916Y-84857666D01*
X189503298Y-84866000D01*
X188996702Y-84866000D01*
X188912084Y-84857666D01*
X188803508Y-84824729D01*
X188803505Y-84824728D01*
X188767399Y-84805429D01*
X188703443Y-84771244D01*
X188615736Y-84699264D01*
X188543756Y-84611557D01*
X188509571Y-84547601D01*
X188490272Y-84511495D01*
X188490271Y-84511492D01*
X188457334Y-84402916D01*
X188446213Y-84290000D01*
X188457334Y-84177084D01*
X188490271Y-84068508D01*
X188490272Y-84068505D01*
X188509571Y-84032399D01*
X188543756Y-83968443D01*
X188615736Y-83880736D01*
X188703443Y-83808756D01*
X188784859Y-83765239D01*
X188805234Y-83751625D01*
X188822561Y-83734298D01*
X188836174Y-83713924D01*
X188845552Y-83691285D01*
X188850332Y-83667252D01*
X188850332Y-83642748D01*
X188845552Y-83618715D01*
X188836174Y-83596076D01*
X188822560Y-83575701D01*
X188805233Y-83558374D01*
X188784859Y-83544761D01*
X188703443Y-83501244D01*
X188615736Y-83429264D01*
X188543756Y-83341557D01*
X188509571Y-83277601D01*
X188490272Y-83241495D01*
X188484269Y-83221705D01*
X188457334Y-83132916D01*
X188446213Y-83020000D01*
X188457334Y-82907084D01*
X188490271Y-82798508D01*
X188490272Y-82798505D01*
X188509571Y-82762399D01*
X188543756Y-82698443D01*
X188615736Y-82610736D01*
X188692646Y-82547617D01*
X188709965Y-82530298D01*
X188723579Y-82509923D01*
X188732957Y-82487284D01*
X188737737Y-82463251D01*
X188737737Y-82438747D01*
X188732957Y-82414714D01*
X188723579Y-82392075D01*
X188709966Y-82371701D01*
X188692639Y-82354374D01*
X188672264Y-82340760D01*
X188649625Y-82331382D01*
X188625592Y-82326602D01*
X188613340Y-82326000D01*
X188449000Y-82326000D01*
X188449000Y-81174000D01*
X190051000Y-81174000D01*
X190051000Y-82326000D01*
G37*
G36*
X184306564Y-80239389D02*
G01*
X184497833Y-80318615D01*
X184497835Y-80318616D01*
X184669973Y-80433635D01*
X184816365Y-80580027D01*
X184931385Y-80752167D01*
X185010611Y-80943436D01*
X185051000Y-81146484D01*
X185051000Y-81353516D01*
X185010611Y-81556564D01*
X184931385Y-81747833D01*
X184931384Y-81747835D01*
X184816365Y-81919973D01*
X184669973Y-82066365D01*
X184497835Y-82181384D01*
X184497834Y-82181385D01*
X184497833Y-82181385D01*
X184306564Y-82260611D01*
X184103516Y-82301000D01*
X183896484Y-82301000D01*
X183693436Y-82260611D01*
X183502167Y-82181385D01*
X183502166Y-82181385D01*
X183502165Y-82181384D01*
X183330027Y-82066365D01*
X183183635Y-81919973D01*
X183068616Y-81747835D01*
X183068615Y-81747833D01*
X182989389Y-81556564D01*
X182949000Y-81353516D01*
X182949000Y-81146484D01*
X182989389Y-80943436D01*
X183068615Y-80752167D01*
X183183635Y-80580027D01*
X183330027Y-80433635D01*
X183502165Y-80318616D01*
X183502167Y-80318615D01*
X183693436Y-80239389D01*
X183896484Y-80199000D01*
X184103516Y-80199000D01*
X184306564Y-80239389D01*
G37*
G36*
X177806564Y-80239389D02*
G01*
X177997833Y-80318615D01*
X177997835Y-80318616D01*
X178169973Y-80433635D01*
X178316365Y-80580027D01*
X178431385Y-80752167D01*
X178510611Y-80943436D01*
X178551000Y-81146484D01*
X178551000Y-81353516D01*
X178510611Y-81556564D01*
X178431385Y-81747833D01*
X178431384Y-81747835D01*
X178316365Y-81919973D01*
X178169973Y-82066365D01*
X177997835Y-82181384D01*
X177997834Y-82181385D01*
X177997833Y-82181385D01*
X177806564Y-82260611D01*
X177603516Y-82301000D01*
X177396484Y-82301000D01*
X177193436Y-82260611D01*
X177002167Y-82181385D01*
X177002166Y-82181385D01*
X177002165Y-82181384D01*
X176830027Y-82066365D01*
X176683635Y-81919973D01*
X176568616Y-81747835D01*
X176568615Y-81747833D01*
X176489389Y-81556564D01*
X176449000Y-81353516D01*
X176449000Y-81146484D01*
X176489389Y-80943436D01*
X176568615Y-80752167D01*
X176683635Y-80580027D01*
X176830027Y-80433635D01*
X177002165Y-80318616D01*
X177002167Y-80318615D01*
X177193436Y-80239389D01*
X177396484Y-80199000D01*
X177603516Y-80199000D01*
X177806564Y-80239389D01*
G37*
G36*
X173451000Y-79951000D02*
G01*
X171549000Y-79951000D01*
X171549000Y-78049000D01*
X173451000Y-78049000D01*
X173451000Y-79951000D01*
G37*
G36*
X198113512Y-77473927D02*
G01*
X198262812Y-77503624D01*
X198426784Y-77571544D01*
X198574354Y-77670147D01*
X198699853Y-77795646D01*
X198798456Y-77943216D01*
X198866376Y-78107188D01*
X198901000Y-78281259D01*
X198901000Y-78458741D01*
X198866376Y-78632812D01*
X198798456Y-78796784D01*
X198699853Y-78944354D01*
X198574354Y-79069853D01*
X198426784Y-79168456D01*
X198262812Y-79236376D01*
X198113512Y-79266073D01*
X198088742Y-79271000D01*
X197911258Y-79271000D01*
X197886488Y-79266073D01*
X197737188Y-79236376D01*
X197573216Y-79168456D01*
X197425646Y-79069853D01*
X197300147Y-78944354D01*
X197201544Y-78796784D01*
X197133624Y-78632812D01*
X197099000Y-78458741D01*
X197099000Y-78281259D01*
X197133624Y-78107188D01*
X197201544Y-77943216D01*
X197300147Y-77795646D01*
X197425646Y-77670147D01*
X197573216Y-77571544D01*
X197737188Y-77503624D01*
X197886488Y-77473927D01*
X197911258Y-77469000D01*
X198088742Y-77469000D01*
X198113512Y-77473927D01*
G37*
G36*
X189401000Y-78401000D02*
G01*
X188099000Y-78401000D01*
X188099000Y-77099000D01*
X189401000Y-77099000D01*
X189401000Y-78401000D01*
G37*
G36*
X190939890Y-77124017D02*
G01*
X191058364Y-77173091D01*
X191164988Y-77244335D01*
X191255665Y-77335012D01*
X191306439Y-77411000D01*
X191326910Y-77441638D01*
X191375983Y-77560110D01*
X191400106Y-77681384D01*
X191401000Y-77685882D01*
X191401000Y-77814118D01*
X191375983Y-77939890D01*
X191326909Y-78058364D01*
X191255665Y-78164988D01*
X191164988Y-78255665D01*
X191058364Y-78326909D01*
X191058363Y-78326910D01*
X191058362Y-78326910D01*
X190939890Y-78375983D01*
X190814119Y-78401000D01*
X190685881Y-78401000D01*
X190560110Y-78375983D01*
X190441638Y-78326910D01*
X190441637Y-78326910D01*
X190441636Y-78326909D01*
X190335012Y-78255665D01*
X190244335Y-78164988D01*
X190173091Y-78058364D01*
X190124017Y-77939890D01*
X190099000Y-77814118D01*
X190099000Y-77685882D01*
X190099895Y-77681384D01*
X190124017Y-77560110D01*
X190173090Y-77441638D01*
X190193562Y-77411000D01*
X190244335Y-77335012D01*
X190335012Y-77244335D01*
X190441636Y-77173091D01*
X190560110Y-77124017D01*
X190685881Y-77099000D01*
X190814119Y-77099000D01*
X190939890Y-77124017D01*
G37*
G36*
X177806564Y-75739389D02*
G01*
X177997833Y-75818615D01*
X177997835Y-75818616D01*
X178050451Y-75853773D01*
X178169973Y-75933635D01*
X178316365Y-76080027D01*
X178431385Y-76252167D01*
X178510611Y-76443436D01*
X178551000Y-76646484D01*
X178551000Y-76853516D01*
X178510611Y-77056564D01*
X178451740Y-77198691D01*
X178431384Y-77247835D01*
X178316365Y-77419973D01*
X178169973Y-77566365D01*
X177997835Y-77681384D01*
X177997834Y-77681385D01*
X177997833Y-77681385D01*
X177806564Y-77760611D01*
X177603516Y-77801000D01*
X177396484Y-77801000D01*
X177193436Y-77760611D01*
X177002167Y-77681385D01*
X177002166Y-77681385D01*
X177002165Y-77681384D01*
X176830027Y-77566365D01*
X176683635Y-77419973D01*
X176568616Y-77247835D01*
X176548260Y-77198691D01*
X176489389Y-77056564D01*
X176449000Y-76853516D01*
X176449000Y-76646484D01*
X176489389Y-76443436D01*
X176568615Y-76252167D01*
X176683635Y-76080027D01*
X176830027Y-75933635D01*
X176949549Y-75853773D01*
X177002165Y-75818616D01*
X177002167Y-75818615D01*
X177193436Y-75739389D01*
X177396484Y-75699000D01*
X177603516Y-75699000D01*
X177806564Y-75739389D01*
G37*
G36*
X184306564Y-75739389D02*
G01*
X184497833Y-75818615D01*
X184497835Y-75818616D01*
X184550451Y-75853773D01*
X184669973Y-75933635D01*
X184816365Y-76080027D01*
X184931385Y-76252167D01*
X185010611Y-76443436D01*
X185051000Y-76646484D01*
X185051000Y-76853516D01*
X185010611Y-77056564D01*
X184951740Y-77198691D01*
X184931384Y-77247835D01*
X184816365Y-77419973D01*
X184669973Y-77566365D01*
X184497835Y-77681384D01*
X184497834Y-77681385D01*
X184497833Y-77681385D01*
X184306564Y-77760611D01*
X184103516Y-77801000D01*
X183896484Y-77801000D01*
X183693436Y-77760611D01*
X183502167Y-77681385D01*
X183502166Y-77681385D01*
X183502165Y-77681384D01*
X183330027Y-77566365D01*
X183183635Y-77419973D01*
X183068616Y-77247835D01*
X183048260Y-77198691D01*
X182989389Y-77056564D01*
X182949000Y-76853516D01*
X182949000Y-76646484D01*
X182989389Y-76443436D01*
X183068615Y-76252167D01*
X183183635Y-76080027D01*
X183330027Y-75933635D01*
X183449549Y-75853773D01*
X183502165Y-75818616D01*
X183502167Y-75818615D01*
X183693436Y-75739389D01*
X183896484Y-75699000D01*
X184103516Y-75699000D01*
X184306564Y-75739389D01*
G37*
G36*
X172777395Y-75545546D02*
G01*
X172950466Y-75617234D01*
X172950467Y-75617235D01*
X173106227Y-75721310D01*
X173238690Y-75853773D01*
X173238691Y-75853775D01*
X173342766Y-76009534D01*
X173414454Y-76182605D01*
X173451000Y-76366333D01*
X173451000Y-76553667D01*
X173414454Y-76737395D01*
X173342766Y-76910466D01*
X173342765Y-76910467D01*
X173238690Y-77066227D01*
X173106227Y-77198690D01*
X173037914Y-77244335D01*
X172950466Y-77302766D01*
X172777395Y-77374454D01*
X172593667Y-77411000D01*
X172406333Y-77411000D01*
X172222605Y-77374454D01*
X172049534Y-77302766D01*
X171962086Y-77244335D01*
X171893773Y-77198690D01*
X171761310Y-77066227D01*
X171657235Y-76910467D01*
X171657234Y-76910466D01*
X171585546Y-76737395D01*
X171549000Y-76553667D01*
X171549000Y-76366333D01*
X171585546Y-76182605D01*
X171657234Y-76009534D01*
X171761309Y-75853775D01*
X171761310Y-75853773D01*
X171893773Y-75721310D01*
X172049533Y-75617235D01*
X172049534Y-75617234D01*
X172222605Y-75545546D01*
X172406333Y-75509000D01*
X172593667Y-75509000D01*
X172777395Y-75545546D01*
G37*
G36*
X198113512Y-74933927D02*
G01*
X198262812Y-74963624D01*
X198426784Y-75031544D01*
X198574354Y-75130147D01*
X198699853Y-75255646D01*
X198798456Y-75403216D01*
X198866376Y-75567188D01*
X198892594Y-75699000D01*
X198901000Y-75741258D01*
X198901000Y-75918742D01*
X198896073Y-75943512D01*
X198866376Y-76092812D01*
X198798456Y-76256784D01*
X198699853Y-76404354D01*
X198574354Y-76529853D01*
X198426784Y-76628456D01*
X198262812Y-76696376D01*
X198113512Y-76726073D01*
X198088742Y-76731000D01*
X197911258Y-76731000D01*
X197886488Y-76726073D01*
X197737188Y-76696376D01*
X197573216Y-76628456D01*
X197425646Y-76529853D01*
X197300147Y-76404354D01*
X197201544Y-76256784D01*
X197133624Y-76092812D01*
X197103927Y-75943512D01*
X197099000Y-75918742D01*
X197099000Y-75741258D01*
X197107406Y-75699000D01*
X197133624Y-75567188D01*
X197201544Y-75403216D01*
X197300147Y-75255646D01*
X197425646Y-75130147D01*
X197573216Y-75031544D01*
X197737188Y-74963624D01*
X197886488Y-74933927D01*
X197911258Y-74929000D01*
X198088742Y-74929000D01*
X198113512Y-74933927D01*
G37*
G36*
X198113512Y-72393927D02*
G01*
X198262812Y-72423624D01*
X198426784Y-72491544D01*
X198574354Y-72590147D01*
X198699853Y-72715646D01*
X198798456Y-72863216D01*
X198866376Y-73027188D01*
X198901000Y-73201259D01*
X198901000Y-73378741D01*
X198866376Y-73552812D01*
X198798456Y-73716784D01*
X198699853Y-73864354D01*
X198574354Y-73989853D01*
X198426784Y-74088456D01*
X198262812Y-74156376D01*
X198113512Y-74186073D01*
X198088742Y-74191000D01*
X197911258Y-74191000D01*
X197886488Y-74186073D01*
X197737188Y-74156376D01*
X197573216Y-74088456D01*
X197425646Y-73989853D01*
X197300147Y-73864354D01*
X197201544Y-73716784D01*
X197133624Y-73552812D01*
X197099000Y-73378741D01*
X197099000Y-73201259D01*
X197133624Y-73027188D01*
X197201544Y-72863216D01*
X197300147Y-72715646D01*
X197425646Y-72590147D01*
X197573216Y-72491544D01*
X197737188Y-72423624D01*
X197886488Y-72393927D01*
X197911258Y-72389000D01*
X198088742Y-72389000D01*
X198113512Y-72393927D01*
G37*
G36*
X198901000Y-71651000D02*
G01*
X197099000Y-71651000D01*
X197099000Y-69849000D01*
X198901000Y-69849000D01*
X198901000Y-71651000D01*
G37*
G36*
X172323512Y-69723927D02*
G01*
X172472812Y-69753624D01*
X172636784Y-69821544D01*
X172784354Y-69920147D01*
X172909853Y-70045646D01*
X173008456Y-70193216D01*
X173076376Y-70357188D01*
X173111000Y-70531259D01*
X173111000Y-70708741D01*
X173076376Y-70882812D01*
X173008456Y-71046784D01*
X172909853Y-71194354D01*
X172784354Y-71319853D01*
X172636784Y-71418456D01*
X172472812Y-71486376D01*
X172323512Y-71516073D01*
X172298742Y-71521000D01*
X172121258Y-71521000D01*
X172096488Y-71516073D01*
X171947188Y-71486376D01*
X171783216Y-71418456D01*
X171635646Y-71319853D01*
X171510147Y-71194354D01*
X171411544Y-71046784D01*
X171343624Y-70882812D01*
X171309000Y-70708741D01*
X171309000Y-70531259D01*
X171343624Y-70357188D01*
X171411544Y-70193216D01*
X171510147Y-70045646D01*
X171635646Y-69920147D01*
X171783216Y-69821544D01*
X171947188Y-69753624D01*
X172096488Y-69723927D01*
X172121258Y-69719000D01*
X172298742Y-69719000D01*
X172323512Y-69723927D01*
G37*
G36*
X174863512Y-69723927D02*
G01*
X175012812Y-69753624D01*
X175176784Y-69821544D01*
X175324354Y-69920147D01*
X175449853Y-70045646D01*
X175548456Y-70193216D01*
X175616376Y-70357188D01*
X175651000Y-70531259D01*
X175651000Y-70708741D01*
X175616376Y-70882812D01*
X175548456Y-71046784D01*
X175449853Y-71194354D01*
X175324354Y-71319853D01*
X175176784Y-71418456D01*
X175012812Y-71486376D01*
X174863512Y-71516073D01*
X174838742Y-71521000D01*
X174661258Y-71521000D01*
X174636488Y-71516073D01*
X174487188Y-71486376D01*
X174323216Y-71418456D01*
X174175646Y-71319853D01*
X174050147Y-71194354D01*
X173951544Y-71046784D01*
X173883624Y-70882812D01*
X173849000Y-70708741D01*
X173849000Y-70531259D01*
X173883624Y-70357188D01*
X173951544Y-70193216D01*
X174050147Y-70045646D01*
X174175646Y-69920147D01*
X174323216Y-69821544D01*
X174487188Y-69753624D01*
X174636488Y-69723927D01*
X174661258Y-69719000D01*
X174838742Y-69719000D01*
X174863512Y-69723927D01*
G37*
G36*
X172323512Y-67183927D02*
G01*
X172472812Y-67213624D01*
X172636784Y-67281544D01*
X172784354Y-67380147D01*
X172909853Y-67505646D01*
X173008456Y-67653216D01*
X173076376Y-67817188D01*
X173111000Y-67991259D01*
X173111000Y-68168741D01*
X173076376Y-68342812D01*
X173008456Y-68506784D01*
X172909853Y-68654354D01*
X172784354Y-68779853D01*
X172636784Y-68878456D01*
X172472812Y-68946376D01*
X172323512Y-68976073D01*
X172298742Y-68981000D01*
X172121258Y-68981000D01*
X172096488Y-68976073D01*
X171947188Y-68946376D01*
X171783216Y-68878456D01*
X171635646Y-68779853D01*
X171510147Y-68654354D01*
X171411544Y-68506784D01*
X171343624Y-68342812D01*
X171309000Y-68168741D01*
X171309000Y-67991259D01*
X171343624Y-67817188D01*
X171411544Y-67653216D01*
X171510147Y-67505646D01*
X171635646Y-67380147D01*
X171783216Y-67281544D01*
X171947188Y-67213624D01*
X172096488Y-67183927D01*
X172121258Y-67179000D01*
X172298742Y-67179000D01*
X172323512Y-67183927D01*
G37*
G36*
X174863512Y-67183927D02*
G01*
X175012812Y-67213624D01*
X175176784Y-67281544D01*
X175324354Y-67380147D01*
X175449853Y-67505646D01*
X175548456Y-67653216D01*
X175616376Y-67817188D01*
X175651000Y-67991259D01*
X175651000Y-68168741D01*
X175616376Y-68342812D01*
X175548456Y-68506784D01*
X175449853Y-68654354D01*
X175324354Y-68779853D01*
X175176784Y-68878456D01*
X175012812Y-68946376D01*
X174863512Y-68976073D01*
X174838742Y-68981000D01*
X174661258Y-68981000D01*
X174636488Y-68976073D01*
X174487188Y-68946376D01*
X174323216Y-68878456D01*
X174175646Y-68779853D01*
X174050147Y-68654354D01*
X173951544Y-68506784D01*
X173883624Y-68342812D01*
X173849000Y-68168741D01*
X173849000Y-67991259D01*
X173883624Y-67817188D01*
X173951544Y-67653216D01*
X174050147Y-67505646D01*
X174175646Y-67380147D01*
X174323216Y-67281544D01*
X174487188Y-67213624D01*
X174636488Y-67183927D01*
X174661258Y-67179000D01*
X174838742Y-67179000D01*
X174863512Y-67183927D01*
G37*
G36*
X172323512Y-64643927D02*
G01*
X172472812Y-64673624D01*
X172636784Y-64741544D01*
X172784354Y-64840147D01*
X172909853Y-64965646D01*
X173008456Y-65113216D01*
X173076376Y-65277188D01*
X173111000Y-65451259D01*
X173111000Y-65628741D01*
X173076376Y-65802812D01*
X173008456Y-65966784D01*
X172909853Y-66114354D01*
X172784354Y-66239853D01*
X172636784Y-66338456D01*
X172472812Y-66406376D01*
X172323512Y-66436073D01*
X172298742Y-66441000D01*
X172121258Y-66441000D01*
X172096488Y-66436073D01*
X171947188Y-66406376D01*
X171783216Y-66338456D01*
X171635646Y-66239853D01*
X171510147Y-66114354D01*
X171411544Y-65966784D01*
X171343624Y-65802812D01*
X171309000Y-65628741D01*
X171309000Y-65451259D01*
X171343624Y-65277188D01*
X171411544Y-65113216D01*
X171510147Y-64965646D01*
X171635646Y-64840147D01*
X171783216Y-64741544D01*
X171947188Y-64673624D01*
X172096488Y-64643927D01*
X172121258Y-64639000D01*
X172298742Y-64639000D01*
X172323512Y-64643927D01*
G37*
G36*
X174863512Y-64643927D02*
G01*
X175012812Y-64673624D01*
X175176784Y-64741544D01*
X175324354Y-64840147D01*
X175449853Y-64965646D01*
X175548456Y-65113216D01*
X175616376Y-65277188D01*
X175651000Y-65451259D01*
X175651000Y-65628741D01*
X175616376Y-65802812D01*
X175548456Y-65966784D01*
X175449853Y-66114354D01*
X175324354Y-66239853D01*
X175176784Y-66338456D01*
X175012812Y-66406376D01*
X174863512Y-66436073D01*
X174838742Y-66441000D01*
X174661258Y-66441000D01*
X174636488Y-66436073D01*
X174487188Y-66406376D01*
X174323216Y-66338456D01*
X174175646Y-66239853D01*
X174050147Y-66114354D01*
X173951544Y-65966784D01*
X173883624Y-65802812D01*
X173849000Y-65628741D01*
X173849000Y-65451259D01*
X173883624Y-65277188D01*
X173951544Y-65113216D01*
X174050147Y-64965646D01*
X174175646Y-64840147D01*
X174323216Y-64741544D01*
X174487188Y-64673624D01*
X174636488Y-64643927D01*
X174661258Y-64639000D01*
X174838742Y-64639000D01*
X174863512Y-64643927D01*
G37*
G36*
X198801000Y-63301000D02*
G01*
X198660445Y-63301000D01*
X198636059Y-63303402D01*
X198612610Y-63310515D01*
X198590999Y-63322066D01*
X198572057Y-63337611D01*
X198556512Y-63356553D01*
X198544961Y-63378164D01*
X198537848Y-63401613D01*
X198535446Y-63425999D01*
X198537848Y-63450385D01*
X198544961Y-63473834D01*
X198556512Y-63495445D01*
X198572057Y-63514387D01*
X198590999Y-63529932D01*
X198601521Y-63536238D01*
X198792555Y-63638347D01*
X198967818Y-63782182D01*
X199111653Y-63957445D01*
X199218529Y-64157398D01*
X199218530Y-64157400D01*
X199284346Y-64374365D01*
X199306569Y-64600000D01*
X199284346Y-64825635D01*
X199241874Y-64965647D01*
X199218529Y-65042602D01*
X199111653Y-65242555D01*
X198967818Y-65417818D01*
X198792555Y-65561653D01*
X198592602Y-65668529D01*
X198592600Y-65668530D01*
X198375635Y-65734346D01*
X198319271Y-65739897D01*
X198206545Y-65751000D01*
X196793455Y-65751000D01*
X196680729Y-65739897D01*
X196624365Y-65734346D01*
X196407400Y-65668530D01*
X196407398Y-65668529D01*
X196207445Y-65561653D01*
X196032182Y-65417818D01*
X195888347Y-65242555D01*
X195781471Y-65042602D01*
X195758127Y-64965647D01*
X195715654Y-64825635D01*
X195693431Y-64600000D01*
X195715654Y-64374365D01*
X195781470Y-64157400D01*
X195781471Y-64157398D01*
X195888347Y-63957445D01*
X196032182Y-63782182D01*
X196207445Y-63638347D01*
X196398479Y-63536238D01*
X196418853Y-63522625D01*
X196436180Y-63505298D01*
X196449794Y-63484923D01*
X196459172Y-63462285D01*
X196463952Y-63438251D01*
X196463952Y-63413747D01*
X196459172Y-63389714D01*
X196449794Y-63367075D01*
X196436181Y-63346701D01*
X196418854Y-63329374D01*
X196398479Y-63315760D01*
X196375841Y-63306382D01*
X196351807Y-63301602D01*
X196339555Y-63301000D01*
X196199000Y-63301000D01*
X196199000Y-61699000D01*
X198801000Y-61699000D01*
X198801000Y-63301000D01*
G37*
G36*
X175651000Y-63901000D02*
G01*
X173849000Y-63901000D01*
X173849000Y-62099000D01*
X175651000Y-62099000D01*
X175651000Y-63901000D01*
G37*
G36*
X172323512Y-62103927D02*
G01*
X172472812Y-62133624D01*
X172636784Y-62201544D01*
X172784354Y-62300147D01*
X172909853Y-62425646D01*
X173008456Y-62573216D01*
X173076376Y-62737188D01*
X173111000Y-62911259D01*
X173111000Y-63088741D01*
X173076376Y-63262812D01*
X173008456Y-63426784D01*
X172909853Y-63574354D01*
X172784354Y-63699853D01*
X172636784Y-63798456D01*
X172472812Y-63866376D01*
X172323512Y-63896073D01*
X172298742Y-63901000D01*
X172121258Y-63901000D01*
X172096488Y-63896073D01*
X171947188Y-63866376D01*
X171783216Y-63798456D01*
X171635646Y-63699853D01*
X171510147Y-63574354D01*
X171411544Y-63426784D01*
X171343624Y-63262812D01*
X171309000Y-63088741D01*
X171309000Y-62911259D01*
X171343624Y-62737188D01*
X171411544Y-62573216D01*
X171510147Y-62425646D01*
X171635646Y-62300147D01*
X171783216Y-62201544D01*
X171947188Y-62133624D01*
X172096488Y-62103927D01*
X172121258Y-62099000D01*
X172298742Y-62099000D01*
X172323512Y-62103927D01*
G37*
G36*
X198078571Y-59702863D02*
G01*
X198157023Y-59710590D01*
X198257682Y-59741125D01*
X198308013Y-59756392D01*
X198447165Y-59830771D01*
X198569133Y-59930867D01*
X198669229Y-60052835D01*
X198743608Y-60191987D01*
X198743608Y-60191988D01*
X198789410Y-60342977D01*
X198804875Y-60500000D01*
X198789410Y-60657023D01*
X198758875Y-60757682D01*
X198743608Y-60808013D01*
X198669229Y-60947165D01*
X198569133Y-61069133D01*
X198447165Y-61169229D01*
X198308013Y-61243608D01*
X198257682Y-61258875D01*
X198157023Y-61289410D01*
X198078571Y-61297137D01*
X198039346Y-61301000D01*
X196960654Y-61301000D01*
X196921429Y-61297137D01*
X196842977Y-61289410D01*
X196742318Y-61258875D01*
X196691987Y-61243608D01*
X196552835Y-61169229D01*
X196430867Y-61069133D01*
X196330771Y-60947165D01*
X196256392Y-60808013D01*
X196241125Y-60757682D01*
X196210590Y-60657023D01*
X196195125Y-60500000D01*
X196210590Y-60342977D01*
X196256392Y-60191988D01*
X196256392Y-60191987D01*
X196330771Y-60052835D01*
X196430867Y-59930867D01*
X196552835Y-59830771D01*
X196691987Y-59756392D01*
X196742318Y-59741125D01*
X196842977Y-59710590D01*
X196921429Y-59702863D01*
X196960654Y-59699000D01*
X198039346Y-59699000D01*
X198078571Y-59702863D01*
G37*
G36*
X185275880Y-55259776D02*
G01*
X185656593Y-55335504D01*
X186066249Y-55505189D01*
X186434929Y-55751534D01*
X186748466Y-56065071D01*
X186994811Y-56433751D01*
X187164496Y-56843407D01*
X187251000Y-57278296D01*
X187251000Y-57721704D01*
X187164496Y-58156593D01*
X186994811Y-58566249D01*
X186748466Y-58934929D01*
X186434929Y-59248466D01*
X186066249Y-59494811D01*
X185656593Y-59664496D01*
X185275880Y-59740224D01*
X185221705Y-59751000D01*
X184778295Y-59751000D01*
X184724120Y-59740224D01*
X184343407Y-59664496D01*
X183933751Y-59494811D01*
X183565071Y-59248466D01*
X183251534Y-58934929D01*
X183005189Y-58566249D01*
X182835504Y-58156593D01*
X182749000Y-57721704D01*
X182749000Y-57278296D01*
X182835504Y-56843407D01*
X183005189Y-56433751D01*
X183251534Y-56065071D01*
X183565071Y-55751534D01*
X183933751Y-55505189D01*
X184343407Y-55335504D01*
X184724120Y-55259776D01*
X184778295Y-55249000D01*
X185221705Y-55249000D01*
X185275880Y-55259776D01*
G37*
G36*
X198319271Y-55260103D02*
G01*
X198375635Y-55265654D01*
X198592600Y-55331470D01*
X198592602Y-55331471D01*
X198792555Y-55438347D01*
X198967818Y-55582182D01*
X199111653Y-55757445D01*
X199218529Y-55957398D01*
X199218530Y-55957400D01*
X199251192Y-56065072D01*
X199284346Y-56174366D01*
X199306569Y-56400000D01*
X199284346Y-56625634D01*
X199218529Y-56842602D01*
X199111653Y-57042555D01*
X198967818Y-57217818D01*
X198792555Y-57361653D01*
X198592602Y-57468529D01*
X198592600Y-57468530D01*
X198375635Y-57534346D01*
X198375631Y-57534346D01*
X198373516Y-57534988D01*
X198353803Y-57538909D01*
X198331164Y-57548285D01*
X198310790Y-57561899D01*
X198293462Y-57579225D01*
X198279848Y-57599599D01*
X198270470Y-57622238D01*
X198265689Y-57646271D01*
X198265689Y-57670775D01*
X198270469Y-57694809D01*
X198279845Y-57717448D01*
X198293459Y-57737822D01*
X198310785Y-57755150D01*
X198331161Y-57768765D01*
X198447165Y-57830771D01*
X198569133Y-57930867D01*
X198669229Y-58052835D01*
X198743608Y-58191987D01*
X198743608Y-58191988D01*
X198789410Y-58342977D01*
X198804875Y-58500000D01*
X198789410Y-58657023D01*
X198758875Y-58757682D01*
X198743608Y-58808013D01*
X198669229Y-58947165D01*
X198569133Y-59069133D01*
X198447165Y-59169229D01*
X198308013Y-59243608D01*
X198257682Y-59258875D01*
X198157023Y-59289410D01*
X198078571Y-59297137D01*
X198039346Y-59301000D01*
X196960654Y-59301000D01*
X196921429Y-59297137D01*
X196842977Y-59289410D01*
X196742318Y-59258875D01*
X196691987Y-59243608D01*
X196552835Y-59169229D01*
X196430867Y-59069133D01*
X196330771Y-58947165D01*
X196256392Y-58808013D01*
X196241125Y-58757682D01*
X196210590Y-58657023D01*
X196195125Y-58500000D01*
X196210590Y-58342977D01*
X196256392Y-58191988D01*
X196256392Y-58191987D01*
X196330771Y-58052835D01*
X196430867Y-57930867D01*
X196552835Y-57830771D01*
X196668839Y-57768765D01*
X196689213Y-57755151D01*
X196706540Y-57737824D01*
X196720154Y-57717450D01*
X196729531Y-57694811D01*
X196734311Y-57670777D01*
X196734311Y-57646273D01*
X196729530Y-57622240D01*
X196720153Y-57599601D01*
X196706539Y-57579227D01*
X196689212Y-57561900D01*
X196668838Y-57548286D01*
X196646199Y-57538909D01*
X196626484Y-57534988D01*
X196624369Y-57534346D01*
X196624365Y-57534346D01*
X196407400Y-57468530D01*
X196407398Y-57468529D01*
X196207445Y-57361653D01*
X196032182Y-57217818D01*
X195888347Y-57042555D01*
X195781471Y-56842602D01*
X195715654Y-56625634D01*
X195693431Y-56400000D01*
X195715654Y-56174366D01*
X195748808Y-56065072D01*
X195781470Y-55957400D01*
X195781471Y-55957398D01*
X195888347Y-55757445D01*
X196032182Y-55582182D01*
X196207445Y-55438347D01*
X196407398Y-55331471D01*
X196407400Y-55331470D01*
X196624365Y-55265654D01*
X196680729Y-55260103D01*
X196793455Y-55249000D01*
X198206545Y-55249000D01*
X198319271Y-55260103D01*
G37*
M02*
