G04 #@! TF.GenerationSoftware,KiCad,Pcbnew,(5.1.5)-3*
G04 #@! TF.CreationDate,2020-06-27T20:36:36+01:00*
G04 #@! TF.ProjectId,Schematic,53636865-6d61-4746-9963-2e6b69636164,v0.1*
G04 #@! TF.SameCoordinates,Original*
G04 #@! TF.FileFunction,Copper,L1,Top*
G04 #@! TF.FilePolarity,Positive*
%FSLAX46Y46*%
G04 Gerber Fmt 4.6, Leading zero omitted, Abs format (unit mm)*
G04 Created by KiCad (PCBNEW (5.1.5)-3) date 2020-06-27 20:36:36*
%MOMM*%
%LPD*%
G04 APERTURE LIST*
G04 #@! TA.AperFunction,Profile*
%ADD10C,0.050000*%
G04 #@! TD*
G04 #@! TA.AperFunction,ComponentPad*
%ADD11R,1.700000X1.700000*%
G04 #@! TD*
G04 #@! TA.AperFunction,ComponentPad*
%ADD12O,1.700000X1.700000*%
G04 #@! TD*
G04 #@! TA.AperFunction,SMDPad,CuDef*
%ADD13C,0.100000*%
G04 #@! TD*
G04 #@! TA.AperFunction,ComponentPad*
%ADD14C,4.400000*%
G04 #@! TD*
G04 #@! TA.AperFunction,ComponentPad*
%ADD15R,3.000000X3.000000*%
G04 #@! TD*
G04 #@! TA.AperFunction,ComponentPad*
%ADD16C,3.000000*%
G04 #@! TD*
G04 #@! TA.AperFunction,ComponentPad*
%ADD17R,1.200000X1.200000*%
G04 #@! TD*
G04 #@! TA.AperFunction,ComponentPad*
%ADD18C,1.200000*%
G04 #@! TD*
G04 #@! TA.AperFunction,ComponentPad*
%ADD19R,1.800000X1.800000*%
G04 #@! TD*
G04 #@! TA.AperFunction,ComponentPad*
%ADD20C,1.800000*%
G04 #@! TD*
G04 #@! TA.AperFunction,ComponentPad*
%ADD21R,1.600000X1.600000*%
G04 #@! TD*
G04 #@! TA.AperFunction,ComponentPad*
%ADD22O,1.600000X1.600000*%
G04 #@! TD*
G04 #@! TA.AperFunction,ComponentPad*
%ADD23C,0.100000*%
G04 #@! TD*
G04 #@! TA.AperFunction,ComponentPad*
%ADD24O,1.700000X2.000000*%
G04 #@! TD*
G04 #@! TA.AperFunction,SMDPad,CuDef*
%ADD25R,1.500000X1.900000*%
G04 #@! TD*
G04 #@! TA.AperFunction,ComponentPad*
%ADD26C,1.450000*%
G04 #@! TD*
G04 #@! TA.AperFunction,SMDPad,CuDef*
%ADD27R,0.400000X1.350000*%
G04 #@! TD*
G04 #@! TA.AperFunction,ComponentPad*
%ADD28O,1.200000X1.900000*%
G04 #@! TD*
G04 #@! TA.AperFunction,SMDPad,CuDef*
%ADD29R,1.200000X1.900000*%
G04 #@! TD*
G04 #@! TA.AperFunction,ComponentPad*
%ADD30C,2.500000*%
G04 #@! TD*
G04 #@! TA.AperFunction,ComponentPad*
%ADD31R,1.500000X1.050000*%
G04 #@! TD*
G04 #@! TA.AperFunction,ComponentPad*
%ADD32O,1.500000X1.050000*%
G04 #@! TD*
G04 #@! TA.AperFunction,ComponentPad*
%ADD33C,2.000000*%
G04 #@! TD*
G04 #@! TA.AperFunction,ComponentPad*
%ADD34R,2.500000X1.500000*%
G04 #@! TD*
G04 #@! TA.AperFunction,ComponentPad*
%ADD35O,2.500000X1.500000*%
G04 #@! TD*
G04 #@! TA.AperFunction,ComponentPad*
%ADD36O,3.500000X2.200000*%
G04 #@! TD*
G04 #@! TA.AperFunction,SMDPad,CuDef*
%ADD37R,3.800000X2.000000*%
G04 #@! TD*
G04 #@! TA.AperFunction,SMDPad,CuDef*
%ADD38R,1.500000X2.000000*%
G04 #@! TD*
G04 #@! TA.AperFunction,ViaPad*
%ADD39C,1.000000*%
G04 #@! TD*
G04 #@! TA.AperFunction,ViaPad*
%ADD40C,0.800000*%
G04 #@! TD*
G04 #@! TA.AperFunction,Conductor*
%ADD41C,0.350000*%
G04 #@! TD*
G04 #@! TA.AperFunction,Conductor*
%ADD42C,0.250000*%
G04 #@! TD*
G04 #@! TA.AperFunction,Conductor*
%ADD43C,2.900000*%
G04 #@! TD*
G04 APERTURE END LIST*
D10*
X200000000Y-110000000D02*
X200000000Y-110500000D01*
X170000000Y-110000000D02*
X170000000Y-110500000D01*
X200000000Y-55000000D02*
X200000000Y-54500000D01*
X170000000Y-55000000D02*
X170000000Y-54500000D01*
X200000000Y-55000000D02*
X200000000Y-80000000D01*
X170000000Y-80000000D02*
X170000000Y-55000000D01*
X170000000Y-110000000D02*
X170000000Y-80000000D01*
X200000000Y-110500000D02*
X170000000Y-110500000D01*
X200000000Y-80000000D02*
X200000000Y-110000000D01*
X170000000Y-54500000D02*
X200000000Y-54500000D01*
D11*
G04 #@! TO.P,J3,1*
G04 #@! TO.N,+5V*
X198000000Y-70750000D03*
D12*
G04 #@! TO.P,J3,2*
G04 #@! TO.N,/TX*
X198000000Y-73290000D03*
G04 #@! TO.P,J3,3*
G04 #@! TO.N,/RX*
X198000000Y-75830000D03*
G04 #@! TO.P,J3,4*
G04 #@! TO.N,GND*
X198000000Y-78370000D03*
G04 #@! TD*
G04 #@! TA.AperFunction,SMDPad,CuDef*
D13*
G04 #@! TO.P,R2,2*
G04 #@! TO.N,Net-(R2-Pad2)*
G36*
X192980142Y-66076174D02*
G01*
X193003803Y-66079684D01*
X193027007Y-66085496D01*
X193049529Y-66093554D01*
X193071153Y-66103782D01*
X193091670Y-66116079D01*
X193110883Y-66130329D01*
X193128607Y-66146393D01*
X193144671Y-66164117D01*
X193158921Y-66183330D01*
X193171218Y-66203847D01*
X193181446Y-66225471D01*
X193189504Y-66247993D01*
X193195316Y-66271197D01*
X193198826Y-66294858D01*
X193200000Y-66318750D01*
X193200000Y-66806250D01*
X193198826Y-66830142D01*
X193195316Y-66853803D01*
X193189504Y-66877007D01*
X193181446Y-66899529D01*
X193171218Y-66921153D01*
X193158921Y-66941670D01*
X193144671Y-66960883D01*
X193128607Y-66978607D01*
X193110883Y-66994671D01*
X193091670Y-67008921D01*
X193071153Y-67021218D01*
X193049529Y-67031446D01*
X193027007Y-67039504D01*
X193003803Y-67045316D01*
X192980142Y-67048826D01*
X192956250Y-67050000D01*
X192043750Y-67050000D01*
X192019858Y-67048826D01*
X191996197Y-67045316D01*
X191972993Y-67039504D01*
X191950471Y-67031446D01*
X191928847Y-67021218D01*
X191908330Y-67008921D01*
X191889117Y-66994671D01*
X191871393Y-66978607D01*
X191855329Y-66960883D01*
X191841079Y-66941670D01*
X191828782Y-66921153D01*
X191818554Y-66899529D01*
X191810496Y-66877007D01*
X191804684Y-66853803D01*
X191801174Y-66830142D01*
X191800000Y-66806250D01*
X191800000Y-66318750D01*
X191801174Y-66294858D01*
X191804684Y-66271197D01*
X191810496Y-66247993D01*
X191818554Y-66225471D01*
X191828782Y-66203847D01*
X191841079Y-66183330D01*
X191855329Y-66164117D01*
X191871393Y-66146393D01*
X191889117Y-66130329D01*
X191908330Y-66116079D01*
X191928847Y-66103782D01*
X191950471Y-66093554D01*
X191972993Y-66085496D01*
X191996197Y-66079684D01*
X192019858Y-66076174D01*
X192043750Y-66075000D01*
X192956250Y-66075000D01*
X192980142Y-66076174D01*
G37*
G04 #@! TD.AperFunction*
G04 #@! TA.AperFunction,SMDPad,CuDef*
G04 #@! TO.P,R2,1*
G04 #@! TO.N,Net-(Q1-Pad2)*
G36*
X192980142Y-67951174D02*
G01*
X193003803Y-67954684D01*
X193027007Y-67960496D01*
X193049529Y-67968554D01*
X193071153Y-67978782D01*
X193091670Y-67991079D01*
X193110883Y-68005329D01*
X193128607Y-68021393D01*
X193144671Y-68039117D01*
X193158921Y-68058330D01*
X193171218Y-68078847D01*
X193181446Y-68100471D01*
X193189504Y-68122993D01*
X193195316Y-68146197D01*
X193198826Y-68169858D01*
X193200000Y-68193750D01*
X193200000Y-68681250D01*
X193198826Y-68705142D01*
X193195316Y-68728803D01*
X193189504Y-68752007D01*
X193181446Y-68774529D01*
X193171218Y-68796153D01*
X193158921Y-68816670D01*
X193144671Y-68835883D01*
X193128607Y-68853607D01*
X193110883Y-68869671D01*
X193091670Y-68883921D01*
X193071153Y-68896218D01*
X193049529Y-68906446D01*
X193027007Y-68914504D01*
X193003803Y-68920316D01*
X192980142Y-68923826D01*
X192956250Y-68925000D01*
X192043750Y-68925000D01*
X192019858Y-68923826D01*
X191996197Y-68920316D01*
X191972993Y-68914504D01*
X191950471Y-68906446D01*
X191928847Y-68896218D01*
X191908330Y-68883921D01*
X191889117Y-68869671D01*
X191871393Y-68853607D01*
X191855329Y-68835883D01*
X191841079Y-68816670D01*
X191828782Y-68796153D01*
X191818554Y-68774529D01*
X191810496Y-68752007D01*
X191804684Y-68728803D01*
X191801174Y-68705142D01*
X191800000Y-68681250D01*
X191800000Y-68193750D01*
X191801174Y-68169858D01*
X191804684Y-68146197D01*
X191810496Y-68122993D01*
X191818554Y-68100471D01*
X191828782Y-68078847D01*
X191841079Y-68058330D01*
X191855329Y-68039117D01*
X191871393Y-68021393D01*
X191889117Y-68005329D01*
X191908330Y-67991079D01*
X191928847Y-67978782D01*
X191950471Y-67968554D01*
X191972993Y-67960496D01*
X191996197Y-67954684D01*
X192019858Y-67951174D01*
X192043750Y-67950000D01*
X192956250Y-67950000D01*
X192980142Y-67951174D01*
G37*
G04 #@! TD.AperFunction*
G04 #@! TD*
G04 #@! TA.AperFunction,SMDPad,CuDef*
G04 #@! TO.P,R3,2*
G04 #@! TO.N,Net-(Q1-Pad3)*
G36*
X174455142Y-73051174D02*
G01*
X174478803Y-73054684D01*
X174502007Y-73060496D01*
X174524529Y-73068554D01*
X174546153Y-73078782D01*
X174566670Y-73091079D01*
X174585883Y-73105329D01*
X174603607Y-73121393D01*
X174619671Y-73139117D01*
X174633921Y-73158330D01*
X174646218Y-73178847D01*
X174656446Y-73200471D01*
X174664504Y-73222993D01*
X174670316Y-73246197D01*
X174673826Y-73269858D01*
X174675000Y-73293750D01*
X174675000Y-74206250D01*
X174673826Y-74230142D01*
X174670316Y-74253803D01*
X174664504Y-74277007D01*
X174656446Y-74299529D01*
X174646218Y-74321153D01*
X174633921Y-74341670D01*
X174619671Y-74360883D01*
X174603607Y-74378607D01*
X174585883Y-74394671D01*
X174566670Y-74408921D01*
X174546153Y-74421218D01*
X174524529Y-74431446D01*
X174502007Y-74439504D01*
X174478803Y-74445316D01*
X174455142Y-74448826D01*
X174431250Y-74450000D01*
X173943750Y-74450000D01*
X173919858Y-74448826D01*
X173896197Y-74445316D01*
X173872993Y-74439504D01*
X173850471Y-74431446D01*
X173828847Y-74421218D01*
X173808330Y-74408921D01*
X173789117Y-74394671D01*
X173771393Y-74378607D01*
X173755329Y-74360883D01*
X173741079Y-74341670D01*
X173728782Y-74321153D01*
X173718554Y-74299529D01*
X173710496Y-74277007D01*
X173704684Y-74253803D01*
X173701174Y-74230142D01*
X173700000Y-74206250D01*
X173700000Y-73293750D01*
X173701174Y-73269858D01*
X173704684Y-73246197D01*
X173710496Y-73222993D01*
X173718554Y-73200471D01*
X173728782Y-73178847D01*
X173741079Y-73158330D01*
X173755329Y-73139117D01*
X173771393Y-73121393D01*
X173789117Y-73105329D01*
X173808330Y-73091079D01*
X173828847Y-73078782D01*
X173850471Y-73068554D01*
X173872993Y-73060496D01*
X173896197Y-73054684D01*
X173919858Y-73051174D01*
X173943750Y-73050000D01*
X174431250Y-73050000D01*
X174455142Y-73051174D01*
G37*
G04 #@! TD.AperFunction*
G04 #@! TA.AperFunction,SMDPad,CuDef*
G04 #@! TO.P,R3,1*
G04 #@! TO.N,Net-(D1-Pad2)*
G36*
X172580142Y-73051174D02*
G01*
X172603803Y-73054684D01*
X172627007Y-73060496D01*
X172649529Y-73068554D01*
X172671153Y-73078782D01*
X172691670Y-73091079D01*
X172710883Y-73105329D01*
X172728607Y-73121393D01*
X172744671Y-73139117D01*
X172758921Y-73158330D01*
X172771218Y-73178847D01*
X172781446Y-73200471D01*
X172789504Y-73222993D01*
X172795316Y-73246197D01*
X172798826Y-73269858D01*
X172800000Y-73293750D01*
X172800000Y-74206250D01*
X172798826Y-74230142D01*
X172795316Y-74253803D01*
X172789504Y-74277007D01*
X172781446Y-74299529D01*
X172771218Y-74321153D01*
X172758921Y-74341670D01*
X172744671Y-74360883D01*
X172728607Y-74378607D01*
X172710883Y-74394671D01*
X172691670Y-74408921D01*
X172671153Y-74421218D01*
X172649529Y-74431446D01*
X172627007Y-74439504D01*
X172603803Y-74445316D01*
X172580142Y-74448826D01*
X172556250Y-74450000D01*
X172068750Y-74450000D01*
X172044858Y-74448826D01*
X172021197Y-74445316D01*
X171997993Y-74439504D01*
X171975471Y-74431446D01*
X171953847Y-74421218D01*
X171933330Y-74408921D01*
X171914117Y-74394671D01*
X171896393Y-74378607D01*
X171880329Y-74360883D01*
X171866079Y-74341670D01*
X171853782Y-74321153D01*
X171843554Y-74299529D01*
X171835496Y-74277007D01*
X171829684Y-74253803D01*
X171826174Y-74230142D01*
X171825000Y-74206250D01*
X171825000Y-73293750D01*
X171826174Y-73269858D01*
X171829684Y-73246197D01*
X171835496Y-73222993D01*
X171843554Y-73200471D01*
X171853782Y-73178847D01*
X171866079Y-73158330D01*
X171880329Y-73139117D01*
X171896393Y-73121393D01*
X171914117Y-73105329D01*
X171933330Y-73091079D01*
X171953847Y-73078782D01*
X171975471Y-73068554D01*
X171997993Y-73060496D01*
X172021197Y-73054684D01*
X172044858Y-73051174D01*
X172068750Y-73050000D01*
X172556250Y-73050000D01*
X172580142Y-73051174D01*
G37*
G04 #@! TD.AperFunction*
G04 #@! TD*
G04 #@! TA.AperFunction,SMDPad,CuDef*
G04 #@! TO.P,R4,2*
G04 #@! TO.N,Net-(Q2-Pad2)*
G36*
X193730142Y-84451174D02*
G01*
X193753803Y-84454684D01*
X193777007Y-84460496D01*
X193799529Y-84468554D01*
X193821153Y-84478782D01*
X193841670Y-84491079D01*
X193860883Y-84505329D01*
X193878607Y-84521393D01*
X193894671Y-84539117D01*
X193908921Y-84558330D01*
X193921218Y-84578847D01*
X193931446Y-84600471D01*
X193939504Y-84622993D01*
X193945316Y-84646197D01*
X193948826Y-84669858D01*
X193950000Y-84693750D01*
X193950000Y-85181250D01*
X193948826Y-85205142D01*
X193945316Y-85228803D01*
X193939504Y-85252007D01*
X193931446Y-85274529D01*
X193921218Y-85296153D01*
X193908921Y-85316670D01*
X193894671Y-85335883D01*
X193878607Y-85353607D01*
X193860883Y-85369671D01*
X193841670Y-85383921D01*
X193821153Y-85396218D01*
X193799529Y-85406446D01*
X193777007Y-85414504D01*
X193753803Y-85420316D01*
X193730142Y-85423826D01*
X193706250Y-85425000D01*
X192793750Y-85425000D01*
X192769858Y-85423826D01*
X192746197Y-85420316D01*
X192722993Y-85414504D01*
X192700471Y-85406446D01*
X192678847Y-85396218D01*
X192658330Y-85383921D01*
X192639117Y-85369671D01*
X192621393Y-85353607D01*
X192605329Y-85335883D01*
X192591079Y-85316670D01*
X192578782Y-85296153D01*
X192568554Y-85274529D01*
X192560496Y-85252007D01*
X192554684Y-85228803D01*
X192551174Y-85205142D01*
X192550000Y-85181250D01*
X192550000Y-84693750D01*
X192551174Y-84669858D01*
X192554684Y-84646197D01*
X192560496Y-84622993D01*
X192568554Y-84600471D01*
X192578782Y-84578847D01*
X192591079Y-84558330D01*
X192605329Y-84539117D01*
X192621393Y-84521393D01*
X192639117Y-84505329D01*
X192658330Y-84491079D01*
X192678847Y-84478782D01*
X192700471Y-84468554D01*
X192722993Y-84460496D01*
X192746197Y-84454684D01*
X192769858Y-84451174D01*
X192793750Y-84450000D01*
X193706250Y-84450000D01*
X193730142Y-84451174D01*
G37*
G04 #@! TD.AperFunction*
G04 #@! TA.AperFunction,SMDPad,CuDef*
G04 #@! TO.P,R4,1*
G04 #@! TO.N,Net-(Q1-Pad3)*
G36*
X193730142Y-82576174D02*
G01*
X193753803Y-82579684D01*
X193777007Y-82585496D01*
X193799529Y-82593554D01*
X193821153Y-82603782D01*
X193841670Y-82616079D01*
X193860883Y-82630329D01*
X193878607Y-82646393D01*
X193894671Y-82664117D01*
X193908921Y-82683330D01*
X193921218Y-82703847D01*
X193931446Y-82725471D01*
X193939504Y-82747993D01*
X193945316Y-82771197D01*
X193948826Y-82794858D01*
X193950000Y-82818750D01*
X193950000Y-83306250D01*
X193948826Y-83330142D01*
X193945316Y-83353803D01*
X193939504Y-83377007D01*
X193931446Y-83399529D01*
X193921218Y-83421153D01*
X193908921Y-83441670D01*
X193894671Y-83460883D01*
X193878607Y-83478607D01*
X193860883Y-83494671D01*
X193841670Y-83508921D01*
X193821153Y-83521218D01*
X193799529Y-83531446D01*
X193777007Y-83539504D01*
X193753803Y-83545316D01*
X193730142Y-83548826D01*
X193706250Y-83550000D01*
X192793750Y-83550000D01*
X192769858Y-83548826D01*
X192746197Y-83545316D01*
X192722993Y-83539504D01*
X192700471Y-83531446D01*
X192678847Y-83521218D01*
X192658330Y-83508921D01*
X192639117Y-83494671D01*
X192621393Y-83478607D01*
X192605329Y-83460883D01*
X192591079Y-83441670D01*
X192578782Y-83421153D01*
X192568554Y-83399529D01*
X192560496Y-83377007D01*
X192554684Y-83353803D01*
X192551174Y-83330142D01*
X192550000Y-83306250D01*
X192550000Y-82818750D01*
X192551174Y-82794858D01*
X192554684Y-82771197D01*
X192560496Y-82747993D01*
X192568554Y-82725471D01*
X192578782Y-82703847D01*
X192591079Y-82683330D01*
X192605329Y-82664117D01*
X192621393Y-82646393D01*
X192639117Y-82630329D01*
X192658330Y-82616079D01*
X192678847Y-82603782D01*
X192700471Y-82593554D01*
X192722993Y-82585496D01*
X192746197Y-82579684D01*
X192769858Y-82576174D01*
X192793750Y-82575000D01*
X193706250Y-82575000D01*
X193730142Y-82576174D01*
G37*
G04 #@! TD.AperFunction*
G04 #@! TD*
G04 #@! TA.AperFunction,SMDPad,CuDef*
G04 #@! TO.P,R5,2*
G04 #@! TO.N,GND*
G36*
X191980142Y-89701174D02*
G01*
X192003803Y-89704684D01*
X192027007Y-89710496D01*
X192049529Y-89718554D01*
X192071153Y-89728782D01*
X192091670Y-89741079D01*
X192110883Y-89755329D01*
X192128607Y-89771393D01*
X192144671Y-89789117D01*
X192158921Y-89808330D01*
X192171218Y-89828847D01*
X192181446Y-89850471D01*
X192189504Y-89872993D01*
X192195316Y-89896197D01*
X192198826Y-89919858D01*
X192200000Y-89943750D01*
X192200000Y-90431250D01*
X192198826Y-90455142D01*
X192195316Y-90478803D01*
X192189504Y-90502007D01*
X192181446Y-90524529D01*
X192171218Y-90546153D01*
X192158921Y-90566670D01*
X192144671Y-90585883D01*
X192128607Y-90603607D01*
X192110883Y-90619671D01*
X192091670Y-90633921D01*
X192071153Y-90646218D01*
X192049529Y-90656446D01*
X192027007Y-90664504D01*
X192003803Y-90670316D01*
X191980142Y-90673826D01*
X191956250Y-90675000D01*
X191043750Y-90675000D01*
X191019858Y-90673826D01*
X190996197Y-90670316D01*
X190972993Y-90664504D01*
X190950471Y-90656446D01*
X190928847Y-90646218D01*
X190908330Y-90633921D01*
X190889117Y-90619671D01*
X190871393Y-90603607D01*
X190855329Y-90585883D01*
X190841079Y-90566670D01*
X190828782Y-90546153D01*
X190818554Y-90524529D01*
X190810496Y-90502007D01*
X190804684Y-90478803D01*
X190801174Y-90455142D01*
X190800000Y-90431250D01*
X190800000Y-89943750D01*
X190801174Y-89919858D01*
X190804684Y-89896197D01*
X190810496Y-89872993D01*
X190818554Y-89850471D01*
X190828782Y-89828847D01*
X190841079Y-89808330D01*
X190855329Y-89789117D01*
X190871393Y-89771393D01*
X190889117Y-89755329D01*
X190908330Y-89741079D01*
X190928847Y-89728782D01*
X190950471Y-89718554D01*
X190972993Y-89710496D01*
X190996197Y-89704684D01*
X191019858Y-89701174D01*
X191043750Y-89700000D01*
X191956250Y-89700000D01*
X191980142Y-89701174D01*
G37*
G04 #@! TD.AperFunction*
G04 #@! TA.AperFunction,SMDPad,CuDef*
G04 #@! TO.P,R5,1*
G04 #@! TO.N,Net-(Q2-Pad2)*
G36*
X191980142Y-87826174D02*
G01*
X192003803Y-87829684D01*
X192027007Y-87835496D01*
X192049529Y-87843554D01*
X192071153Y-87853782D01*
X192091670Y-87866079D01*
X192110883Y-87880329D01*
X192128607Y-87896393D01*
X192144671Y-87914117D01*
X192158921Y-87933330D01*
X192171218Y-87953847D01*
X192181446Y-87975471D01*
X192189504Y-87997993D01*
X192195316Y-88021197D01*
X192198826Y-88044858D01*
X192200000Y-88068750D01*
X192200000Y-88556250D01*
X192198826Y-88580142D01*
X192195316Y-88603803D01*
X192189504Y-88627007D01*
X192181446Y-88649529D01*
X192171218Y-88671153D01*
X192158921Y-88691670D01*
X192144671Y-88710883D01*
X192128607Y-88728607D01*
X192110883Y-88744671D01*
X192091670Y-88758921D01*
X192071153Y-88771218D01*
X192049529Y-88781446D01*
X192027007Y-88789504D01*
X192003803Y-88795316D01*
X191980142Y-88798826D01*
X191956250Y-88800000D01*
X191043750Y-88800000D01*
X191019858Y-88798826D01*
X190996197Y-88795316D01*
X190972993Y-88789504D01*
X190950471Y-88781446D01*
X190928847Y-88771218D01*
X190908330Y-88758921D01*
X190889117Y-88744671D01*
X190871393Y-88728607D01*
X190855329Y-88710883D01*
X190841079Y-88691670D01*
X190828782Y-88671153D01*
X190818554Y-88649529D01*
X190810496Y-88627007D01*
X190804684Y-88603803D01*
X190801174Y-88580142D01*
X190800000Y-88556250D01*
X190800000Y-88068750D01*
X190801174Y-88044858D01*
X190804684Y-88021197D01*
X190810496Y-87997993D01*
X190818554Y-87975471D01*
X190828782Y-87953847D01*
X190841079Y-87933330D01*
X190855329Y-87914117D01*
X190871393Y-87896393D01*
X190889117Y-87880329D01*
X190908330Y-87866079D01*
X190928847Y-87853782D01*
X190950471Y-87843554D01*
X190972993Y-87835496D01*
X190996197Y-87829684D01*
X191019858Y-87826174D01*
X191043750Y-87825000D01*
X191956250Y-87825000D01*
X191980142Y-87826174D01*
G37*
G04 #@! TD.AperFunction*
G04 #@! TD*
G04 #@! TA.AperFunction,SMDPad,CuDef*
G04 #@! TO.P,R1,2*
G04 #@! TO.N,+3V3*
G36*
X174455142Y-59551174D02*
G01*
X174478803Y-59554684D01*
X174502007Y-59560496D01*
X174524529Y-59568554D01*
X174546153Y-59578782D01*
X174566670Y-59591079D01*
X174585883Y-59605329D01*
X174603607Y-59621393D01*
X174619671Y-59639117D01*
X174633921Y-59658330D01*
X174646218Y-59678847D01*
X174656446Y-59700471D01*
X174664504Y-59722993D01*
X174670316Y-59746197D01*
X174673826Y-59769858D01*
X174675000Y-59793750D01*
X174675000Y-60706250D01*
X174673826Y-60730142D01*
X174670316Y-60753803D01*
X174664504Y-60777007D01*
X174656446Y-60799529D01*
X174646218Y-60821153D01*
X174633921Y-60841670D01*
X174619671Y-60860883D01*
X174603607Y-60878607D01*
X174585883Y-60894671D01*
X174566670Y-60908921D01*
X174546153Y-60921218D01*
X174524529Y-60931446D01*
X174502007Y-60939504D01*
X174478803Y-60945316D01*
X174455142Y-60948826D01*
X174431250Y-60950000D01*
X173943750Y-60950000D01*
X173919858Y-60948826D01*
X173896197Y-60945316D01*
X173872993Y-60939504D01*
X173850471Y-60931446D01*
X173828847Y-60921218D01*
X173808330Y-60908921D01*
X173789117Y-60894671D01*
X173771393Y-60878607D01*
X173755329Y-60860883D01*
X173741079Y-60841670D01*
X173728782Y-60821153D01*
X173718554Y-60799529D01*
X173710496Y-60777007D01*
X173704684Y-60753803D01*
X173701174Y-60730142D01*
X173700000Y-60706250D01*
X173700000Y-59793750D01*
X173701174Y-59769858D01*
X173704684Y-59746197D01*
X173710496Y-59722993D01*
X173718554Y-59700471D01*
X173728782Y-59678847D01*
X173741079Y-59658330D01*
X173755329Y-59639117D01*
X173771393Y-59621393D01*
X173789117Y-59605329D01*
X173808330Y-59591079D01*
X173828847Y-59578782D01*
X173850471Y-59568554D01*
X173872993Y-59560496D01*
X173896197Y-59554684D01*
X173919858Y-59551174D01*
X173943750Y-59550000D01*
X174431250Y-59550000D01*
X174455142Y-59551174D01*
G37*
G04 #@! TD.AperFunction*
G04 #@! TA.AperFunction,SMDPad,CuDef*
G04 #@! TO.P,R1,1*
G04 #@! TO.N,Net-(J4-Pad4)*
G36*
X172580142Y-59551174D02*
G01*
X172603803Y-59554684D01*
X172627007Y-59560496D01*
X172649529Y-59568554D01*
X172671153Y-59578782D01*
X172691670Y-59591079D01*
X172710883Y-59605329D01*
X172728607Y-59621393D01*
X172744671Y-59639117D01*
X172758921Y-59658330D01*
X172771218Y-59678847D01*
X172781446Y-59700471D01*
X172789504Y-59722993D01*
X172795316Y-59746197D01*
X172798826Y-59769858D01*
X172800000Y-59793750D01*
X172800000Y-60706250D01*
X172798826Y-60730142D01*
X172795316Y-60753803D01*
X172789504Y-60777007D01*
X172781446Y-60799529D01*
X172771218Y-60821153D01*
X172758921Y-60841670D01*
X172744671Y-60860883D01*
X172728607Y-60878607D01*
X172710883Y-60894671D01*
X172691670Y-60908921D01*
X172671153Y-60921218D01*
X172649529Y-60931446D01*
X172627007Y-60939504D01*
X172603803Y-60945316D01*
X172580142Y-60948826D01*
X172556250Y-60950000D01*
X172068750Y-60950000D01*
X172044858Y-60948826D01*
X172021197Y-60945316D01*
X171997993Y-60939504D01*
X171975471Y-60931446D01*
X171953847Y-60921218D01*
X171933330Y-60908921D01*
X171914117Y-60894671D01*
X171896393Y-60878607D01*
X171880329Y-60860883D01*
X171866079Y-60841670D01*
X171853782Y-60821153D01*
X171843554Y-60799529D01*
X171835496Y-60777007D01*
X171829684Y-60753803D01*
X171826174Y-60730142D01*
X171825000Y-60706250D01*
X171825000Y-59793750D01*
X171826174Y-59769858D01*
X171829684Y-59746197D01*
X171835496Y-59722993D01*
X171843554Y-59700471D01*
X171853782Y-59678847D01*
X171866079Y-59658330D01*
X171880329Y-59639117D01*
X171896393Y-59621393D01*
X171914117Y-59605329D01*
X171933330Y-59591079D01*
X171953847Y-59578782D01*
X171975471Y-59568554D01*
X171997993Y-59560496D01*
X172021197Y-59554684D01*
X172044858Y-59551174D01*
X172068750Y-59550000D01*
X172556250Y-59550000D01*
X172580142Y-59551174D01*
G37*
G04 #@! TD.AperFunction*
G04 #@! TD*
D14*
G04 #@! TO.P,REF\002A\002A,1*
G04 #@! TO.N,GND*
X185000000Y-57500000D03*
G04 #@! TD*
G04 #@! TO.P,REF\002A\002A,1*
G04 #@! TO.N,GND*
X185000000Y-107500000D03*
G04 #@! TD*
G04 #@! TO.P,REF\002A\002A,1*
G04 #@! TO.N,GND*
X173000000Y-83000000D03*
G04 #@! TD*
G04 #@! TO.P,REF\002A\002A,1*
G04 #@! TO.N,GND*
X197000000Y-83000000D03*
G04 #@! TD*
D15*
G04 #@! TO.P,J5,1*
G04 #@! TO.N,Net-(J5-Pad1)*
X196000000Y-99500000D03*
D16*
G04 #@! TO.P,J5,2*
G04 #@! TO.N,Net-(J5-Pad2)*
X196000000Y-94420000D03*
G04 #@! TD*
G04 #@! TA.AperFunction,SMDPad,CuDef*
D13*
G04 #@! TO.P,C1,1*
G04 #@! TO.N,+5V*
G36*
X185702691Y-61526053D02*
G01*
X185723926Y-61529203D01*
X185744750Y-61534419D01*
X185764962Y-61541651D01*
X185784368Y-61550830D01*
X185802781Y-61561866D01*
X185820024Y-61574654D01*
X185835930Y-61589070D01*
X185850346Y-61604976D01*
X185863134Y-61622219D01*
X185874170Y-61640632D01*
X185883349Y-61660038D01*
X185890581Y-61680250D01*
X185895797Y-61701074D01*
X185898947Y-61722309D01*
X185900000Y-61743750D01*
X185900000Y-62256250D01*
X185898947Y-62277691D01*
X185895797Y-62298926D01*
X185890581Y-62319750D01*
X185883349Y-62339962D01*
X185874170Y-62359368D01*
X185863134Y-62377781D01*
X185850346Y-62395024D01*
X185835930Y-62410930D01*
X185820024Y-62425346D01*
X185802781Y-62438134D01*
X185784368Y-62449170D01*
X185764962Y-62458349D01*
X185744750Y-62465581D01*
X185723926Y-62470797D01*
X185702691Y-62473947D01*
X185681250Y-62475000D01*
X185243750Y-62475000D01*
X185222309Y-62473947D01*
X185201074Y-62470797D01*
X185180250Y-62465581D01*
X185160038Y-62458349D01*
X185140632Y-62449170D01*
X185122219Y-62438134D01*
X185104976Y-62425346D01*
X185089070Y-62410930D01*
X185074654Y-62395024D01*
X185061866Y-62377781D01*
X185050830Y-62359368D01*
X185041651Y-62339962D01*
X185034419Y-62319750D01*
X185029203Y-62298926D01*
X185026053Y-62277691D01*
X185025000Y-62256250D01*
X185025000Y-61743750D01*
X185026053Y-61722309D01*
X185029203Y-61701074D01*
X185034419Y-61680250D01*
X185041651Y-61660038D01*
X185050830Y-61640632D01*
X185061866Y-61622219D01*
X185074654Y-61604976D01*
X185089070Y-61589070D01*
X185104976Y-61574654D01*
X185122219Y-61561866D01*
X185140632Y-61550830D01*
X185160038Y-61541651D01*
X185180250Y-61534419D01*
X185201074Y-61529203D01*
X185222309Y-61526053D01*
X185243750Y-61525000D01*
X185681250Y-61525000D01*
X185702691Y-61526053D01*
G37*
G04 #@! TD.AperFunction*
G04 #@! TA.AperFunction,SMDPad,CuDef*
G04 #@! TO.P,C1,2*
G04 #@! TO.N,GND*
G36*
X187277691Y-61526053D02*
G01*
X187298926Y-61529203D01*
X187319750Y-61534419D01*
X187339962Y-61541651D01*
X187359368Y-61550830D01*
X187377781Y-61561866D01*
X187395024Y-61574654D01*
X187410930Y-61589070D01*
X187425346Y-61604976D01*
X187438134Y-61622219D01*
X187449170Y-61640632D01*
X187458349Y-61660038D01*
X187465581Y-61680250D01*
X187470797Y-61701074D01*
X187473947Y-61722309D01*
X187475000Y-61743750D01*
X187475000Y-62256250D01*
X187473947Y-62277691D01*
X187470797Y-62298926D01*
X187465581Y-62319750D01*
X187458349Y-62339962D01*
X187449170Y-62359368D01*
X187438134Y-62377781D01*
X187425346Y-62395024D01*
X187410930Y-62410930D01*
X187395024Y-62425346D01*
X187377781Y-62438134D01*
X187359368Y-62449170D01*
X187339962Y-62458349D01*
X187319750Y-62465581D01*
X187298926Y-62470797D01*
X187277691Y-62473947D01*
X187256250Y-62475000D01*
X186818750Y-62475000D01*
X186797309Y-62473947D01*
X186776074Y-62470797D01*
X186755250Y-62465581D01*
X186735038Y-62458349D01*
X186715632Y-62449170D01*
X186697219Y-62438134D01*
X186679976Y-62425346D01*
X186664070Y-62410930D01*
X186649654Y-62395024D01*
X186636866Y-62377781D01*
X186625830Y-62359368D01*
X186616651Y-62339962D01*
X186609419Y-62319750D01*
X186604203Y-62298926D01*
X186601053Y-62277691D01*
X186600000Y-62256250D01*
X186600000Y-61743750D01*
X186601053Y-61722309D01*
X186604203Y-61701074D01*
X186609419Y-61680250D01*
X186616651Y-61660038D01*
X186625830Y-61640632D01*
X186636866Y-61622219D01*
X186649654Y-61604976D01*
X186664070Y-61589070D01*
X186679976Y-61574654D01*
X186697219Y-61561866D01*
X186715632Y-61550830D01*
X186735038Y-61541651D01*
X186755250Y-61534419D01*
X186776074Y-61529203D01*
X186797309Y-61526053D01*
X186818750Y-61525000D01*
X187256250Y-61525000D01*
X187277691Y-61526053D01*
G37*
G04 #@! TD.AperFunction*
G04 #@! TD*
D17*
G04 #@! TO.P,C2,1*
G04 #@! TO.N,+3V3*
X188750000Y-77750000D03*
D18*
G04 #@! TO.P,C2,2*
G04 #@! TO.N,GND*
X190750000Y-77750000D03*
G04 #@! TD*
D19*
G04 #@! TO.P,D1,1*
G04 #@! TO.N,GND*
X172500000Y-79000000D03*
D20*
G04 #@! TO.P,D1,2*
G04 #@! TO.N,Net-(D1-Pad2)*
X172500000Y-76460000D03*
G04 #@! TD*
D21*
G04 #@! TO.P,D2,1*
G04 #@! TO.N,+5V*
X177000000Y-84500000D03*
D22*
G04 #@! TO.P,D2,2*
G04 #@! TO.N,Net-(D2-Pad2)*
X184620000Y-84500000D03*
G04 #@! TD*
G04 #@! TA.AperFunction,ComponentPad*
D23*
G04 #@! TO.P,J1,1*
G04 #@! TO.N,GND*
G36*
X176124504Y-105501204D02*
G01*
X176148773Y-105504804D01*
X176172571Y-105510765D01*
X176195671Y-105519030D01*
X176217849Y-105529520D01*
X176238893Y-105542133D01*
X176258598Y-105556747D01*
X176276777Y-105573223D01*
X176293253Y-105591402D01*
X176307867Y-105611107D01*
X176320480Y-105632151D01*
X176330970Y-105654329D01*
X176339235Y-105677429D01*
X176345196Y-105701227D01*
X176348796Y-105725496D01*
X176350000Y-105750000D01*
X176350000Y-107250000D01*
X176348796Y-107274504D01*
X176345196Y-107298773D01*
X176339235Y-107322571D01*
X176330970Y-107345671D01*
X176320480Y-107367849D01*
X176307867Y-107388893D01*
X176293253Y-107408598D01*
X176276777Y-107426777D01*
X176258598Y-107443253D01*
X176238893Y-107457867D01*
X176217849Y-107470480D01*
X176195671Y-107480970D01*
X176172571Y-107489235D01*
X176148773Y-107495196D01*
X176124504Y-107498796D01*
X176100000Y-107500000D01*
X174900000Y-107500000D01*
X174875496Y-107498796D01*
X174851227Y-107495196D01*
X174827429Y-107489235D01*
X174804329Y-107480970D01*
X174782151Y-107470480D01*
X174761107Y-107457867D01*
X174741402Y-107443253D01*
X174723223Y-107426777D01*
X174706747Y-107408598D01*
X174692133Y-107388893D01*
X174679520Y-107367849D01*
X174669030Y-107345671D01*
X174660765Y-107322571D01*
X174654804Y-107298773D01*
X174651204Y-107274504D01*
X174650000Y-107250000D01*
X174650000Y-105750000D01*
X174651204Y-105725496D01*
X174654804Y-105701227D01*
X174660765Y-105677429D01*
X174669030Y-105654329D01*
X174679520Y-105632151D01*
X174692133Y-105611107D01*
X174706747Y-105591402D01*
X174723223Y-105573223D01*
X174741402Y-105556747D01*
X174761107Y-105542133D01*
X174782151Y-105529520D01*
X174804329Y-105519030D01*
X174827429Y-105510765D01*
X174851227Y-105504804D01*
X174875496Y-105501204D01*
X174900000Y-105500000D01*
X176100000Y-105500000D01*
X176124504Y-105501204D01*
G37*
G04 #@! TD.AperFunction*
D24*
G04 #@! TO.P,J1,2*
G04 #@! TO.N,+5V*
X178000000Y-106500000D03*
G04 #@! TD*
D25*
G04 #@! TO.P,J2,6*
G04 #@! TO.N,Net-(J2-Pad6)*
X194650000Y-109050000D03*
D26*
X191150000Y-106350000D03*
D27*
G04 #@! TO.P,J2,2*
G04 #@! TO.N,Net-(J2-Pad2)*
X193000000Y-106350000D03*
G04 #@! TO.P,J2,1*
G04 #@! TO.N,+5V*
X192350000Y-106350000D03*
G04 #@! TO.P,J2,5*
G04 #@! TO.N,GND*
X194950000Y-106350000D03*
G04 #@! TO.P,J2,4*
G04 #@! TO.N,Net-(J2-Pad4)*
X194300000Y-106350000D03*
G04 #@! TO.P,J2,3*
G04 #@! TO.N,Net-(J2-Pad3)*
X193650000Y-106350000D03*
D26*
G04 #@! TO.P,J2,6*
G04 #@! TO.N,Net-(J2-Pad6)*
X196150000Y-106350000D03*
D25*
X192650000Y-109050000D03*
D28*
X190150000Y-109050000D03*
X197150000Y-109050000D03*
D29*
X196550000Y-109050000D03*
X190750000Y-109050000D03*
G04 #@! TD*
D11*
G04 #@! TO.P,J4,1*
G04 #@! TO.N,GND*
X174750000Y-63000000D03*
D12*
G04 #@! TO.P,J4,2*
G04 #@! TO.N,/TX*
X172210000Y-63000000D03*
G04 #@! TO.P,J4,3*
G04 #@! TO.N,Net-(J4-Pad3)*
X174750000Y-65540000D03*
G04 #@! TO.P,J4,4*
G04 #@! TO.N,Net-(J4-Pad4)*
X172210000Y-65540000D03*
G04 #@! TO.P,J4,5*
G04 #@! TO.N,Net-(J4-Pad5)*
X174750000Y-68080000D03*
G04 #@! TO.P,J4,6*
G04 #@! TO.N,Net-(J4-Pad6)*
X172210000Y-68080000D03*
G04 #@! TO.P,J4,7*
G04 #@! TO.N,/RX*
X174750000Y-70620000D03*
G04 #@! TO.P,J4,8*
G04 #@! TO.N,+3V3*
X172210000Y-70620000D03*
G04 #@! TD*
D30*
G04 #@! TO.P,K1,2*
G04 #@! TO.N,Net-(D2-Pad2)*
X173700000Y-100300000D03*
D16*
G04 #@! TO.P,K1,3*
G04 #@! TO.N,Net-(J5-Pad1)*
X185900000Y-100300000D03*
G04 #@! TO.P,K1,4*
G04 #@! TO.N,Net-(K1-Pad4)*
X185950000Y-88250000D03*
D30*
G04 #@! TO.P,K1,5*
G04 #@! TO.N,+5V*
X173700000Y-88300000D03*
D16*
G04 #@! TO.P,K1,1*
G04 #@! TO.N,Net-(J5-Pad2)*
X171750000Y-94250000D03*
G04 #@! TD*
D31*
G04 #@! TO.P,Q1,1*
G04 #@! TO.N,+3V3*
X189250000Y-81750000D03*
D32*
G04 #@! TO.P,Q1,3*
G04 #@! TO.N,Net-(Q1-Pad3)*
X189250000Y-84290000D03*
G04 #@! TO.P,Q1,2*
G04 #@! TO.N,Net-(Q1-Pad2)*
X189250000Y-83020000D03*
G04 #@! TD*
D31*
G04 #@! TO.P,Q2,1*
G04 #@! TO.N,GND*
X195500000Y-90000000D03*
D32*
G04 #@! TO.P,Q2,3*
G04 #@! TO.N,Net-(D2-Pad2)*
X195500000Y-87460000D03*
G04 #@! TO.P,Q2,2*
G04 #@! TO.N,Net-(Q2-Pad2)*
X195500000Y-88730000D03*
G04 #@! TD*
D33*
G04 #@! TO.P,SW1,2*
G04 #@! TO.N,Net-(J4-Pad6)*
X177500000Y-81250000D03*
G04 #@! TO.P,SW1,1*
G04 #@! TO.N,GND*
X177500000Y-76750000D03*
G04 #@! TO.P,SW1,2*
G04 #@! TO.N,Net-(J4-Pad6)*
X184000000Y-81250000D03*
G04 #@! TO.P,SW1,1*
G04 #@! TO.N,GND*
X184000000Y-76750000D03*
G04 #@! TD*
D34*
G04 #@! TO.P,SW2,1*
G04 #@! TO.N,Net-(R2-Pad2)*
X197500000Y-62500000D03*
D35*
G04 #@! TO.P,SW2,2*
G04 #@! TO.N,Net-(J4-Pad5)*
X197500000Y-60500000D03*
G04 #@! TO.P,SW2,3*
G04 #@! TO.N,GND*
X197500000Y-58500000D03*
D36*
G04 #@! TO.P,SW2,*
G04 #@! TO.N,*
X197500000Y-64600000D03*
X197500000Y-56400000D03*
G04 #@! TD*
D37*
G04 #@! TO.P,U1,2*
G04 #@! TO.N,+3V3*
X186250000Y-71150000D03*
D38*
X186250000Y-64850000D03*
G04 #@! TO.P,U1,3*
G04 #@! TO.N,+5V*
X183950000Y-64850000D03*
G04 #@! TO.P,U1,1*
G04 #@! TO.N,GND*
X188550000Y-64850000D03*
G04 #@! TD*
D39*
G04 #@! TO.N,+5V*
X184000000Y-62100000D03*
G04 #@! TO.N,+3V3*
X183750000Y-74000000D03*
D40*
G04 #@! TO.N,Net-(Q1-Pad3)*
X177500000Y-73750000D03*
G04 #@! TD*
D41*
G04 #@! TO.N,+5V*
X182850000Y-64850000D02*
X183950000Y-64850000D01*
X180750000Y-66950000D02*
X182850000Y-64850000D01*
X178750000Y-84500000D02*
X180750000Y-82500000D01*
X177000000Y-84500000D02*
X178750000Y-84500000D01*
X180750000Y-82500000D02*
X180750000Y-66950000D01*
X178950000Y-88300000D02*
X180750000Y-86500000D01*
X173700000Y-88300000D02*
X178950000Y-88300000D01*
X180750000Y-86500000D02*
X180750000Y-82500000D01*
X190775000Y-103750000D02*
X177250000Y-103750000D01*
X192350000Y-106350000D02*
X192350000Y-105325000D01*
X192350000Y-105325000D02*
X190775000Y-103750000D01*
X180750000Y-90250000D02*
X180750000Y-86500000D01*
X171500000Y-99500000D02*
X180750000Y-90250000D01*
X172750000Y-103750000D02*
X171500000Y-102500000D01*
X171500000Y-102500000D02*
X171500000Y-99500000D01*
X185362500Y-62100000D02*
X185462500Y-62000000D01*
X184000000Y-62100000D02*
X184000000Y-62100000D01*
X184000000Y-64800000D02*
X183950000Y-64850000D01*
X184000000Y-62100000D02*
X184000000Y-64800000D01*
X184000000Y-62100000D02*
X185362500Y-62100000D01*
X184000000Y-62100000D02*
X184000000Y-62100000D01*
X173750000Y-103750000D02*
X172750000Y-103750000D01*
X176600000Y-103750000D02*
X176000000Y-103750000D01*
X178000000Y-105150000D02*
X176600000Y-103750000D01*
X178000000Y-106500000D02*
X178000000Y-105150000D01*
X177250000Y-103750000D02*
X176000000Y-103750000D01*
X176000000Y-103750000D02*
X172750000Y-103750000D01*
G04 #@! TO.N,GND*
X195312500Y-90187500D02*
X195500000Y-90000000D01*
X191500000Y-90187500D02*
X195312500Y-90187500D01*
X188111269Y-107500000D02*
X185000000Y-107500000D01*
X194610002Y-107500000D02*
X188111269Y-107500000D01*
X194950000Y-107160002D02*
X194610002Y-107500000D01*
X194950000Y-106350000D02*
X194950000Y-107160002D01*
X188550000Y-63500000D02*
X188550000Y-64850000D01*
X187475000Y-62000000D02*
X188550000Y-63075000D01*
X188550000Y-63075000D02*
X188550000Y-63500000D01*
X187037500Y-62000000D02*
X187475000Y-62000000D01*
X189650000Y-64850000D02*
X188550000Y-64850000D01*
X190750000Y-65950000D02*
X189650000Y-64850000D01*
X190750000Y-77750000D02*
X190750000Y-65950000D01*
G04 #@! TO.N,+3V3*
X186250000Y-72500000D02*
X186250000Y-71150000D01*
X187800000Y-77750000D02*
X186250000Y-76200000D01*
X188750000Y-77750000D02*
X187800000Y-77750000D01*
X186250000Y-79850000D02*
X186250000Y-76200000D01*
X188150000Y-81750000D02*
X186250000Y-79850000D01*
X189250000Y-81750000D02*
X188150000Y-81750000D01*
X186250000Y-66200000D02*
X186250000Y-71150000D01*
X186250000Y-64850000D02*
X186250000Y-66200000D01*
X185500000Y-74000000D02*
X186250000Y-73250000D01*
X183750000Y-74000000D02*
X185500000Y-74000000D01*
X186250000Y-76200000D02*
X186250000Y-73250000D01*
X186250000Y-73250000D02*
X186250000Y-72500000D01*
X174187500Y-59550000D02*
X173637500Y-59000000D01*
X174187500Y-60250000D02*
X174187500Y-59550000D01*
X173637500Y-59000000D02*
X171250000Y-59000000D01*
X171250000Y-59000000D02*
X170750000Y-59500000D01*
X170750000Y-69160000D02*
X172210000Y-70620000D01*
X170750000Y-59500000D02*
X170750000Y-69160000D01*
D42*
G04 #@! TO.N,Net-(D1-Pad2)*
X173250000Y-75710000D02*
X172500000Y-76460000D01*
X173250000Y-74200000D02*
X173250000Y-75710000D01*
X172312500Y-73750000D02*
X172800000Y-73750000D01*
X172800000Y-73750000D02*
X173250000Y-74200000D01*
G04 #@! TO.N,Net-(D2-Pad2)*
X173700000Y-100300000D02*
X176700000Y-100300000D01*
X176700000Y-100300000D02*
X182250000Y-94750000D01*
X182250000Y-86870000D02*
X184620000Y-84500000D01*
X182250000Y-94750000D02*
X182250000Y-86870000D01*
G04 #@! TO.N,Net-(J4-Pad4)*
X172312500Y-60250000D02*
X173400000Y-61337500D01*
X173400000Y-64350000D02*
X172210000Y-65540000D01*
X173400000Y-61337500D02*
X173400000Y-64350000D01*
G04 #@! TO.N,Net-(J4-Pad5)*
X196000000Y-60500000D02*
X197500000Y-60500000D01*
X175952081Y-68080000D02*
X183532081Y-60500000D01*
X183532081Y-60500000D02*
X196000000Y-60500000D01*
X174750000Y-68080000D02*
X175952081Y-68080000D01*
G04 #@! TO.N,Net-(J4-Pad6)*
X179500000Y-71700000D02*
X179500000Y-79250000D01*
X177200000Y-69400000D02*
X179500000Y-71700000D01*
X179500000Y-79250000D02*
X177500000Y-81250000D01*
X172210000Y-68080000D02*
X173530000Y-69400000D01*
X173530000Y-69400000D02*
X177200000Y-69400000D01*
D43*
G04 #@! TO.N,Net-(J5-Pad1)*
X186700000Y-99500000D02*
X185900000Y-100300000D01*
X196000000Y-99500000D02*
X186700000Y-99500000D01*
D42*
G04 #@! TO.N,Net-(Q1-Pad3)*
X192022500Y-84290000D02*
X193250000Y-83062500D01*
X189250000Y-84290000D02*
X192022500Y-84290000D01*
X174187500Y-73750000D02*
X174675000Y-73750000D01*
X174675000Y-73750000D02*
X177500000Y-73750000D01*
X177500000Y-73750000D02*
X177500000Y-73750000D01*
G04 #@! TO.N,Net-(Q1-Pad2)*
X190250000Y-83020000D02*
X189250000Y-83020000D01*
X192500000Y-80770000D02*
X190250000Y-83020000D01*
X192500000Y-68437500D02*
X192500000Y-80770000D01*
G04 #@! TO.N,Net-(Q2-Pad2)*
X193250000Y-85425000D02*
X193250000Y-84937500D01*
X192200000Y-88312500D02*
X193250000Y-87262500D01*
X191500000Y-88312500D02*
X192200000Y-88312500D01*
X193250000Y-87480000D02*
X193250000Y-87250000D01*
X195500000Y-88730000D02*
X194500000Y-88730000D01*
X193250000Y-87262500D02*
X193250000Y-87250000D01*
X194500000Y-88730000D02*
X193250000Y-87480000D01*
X193250000Y-87250000D02*
X193250000Y-85425000D01*
G04 #@! TO.N,Net-(R2-Pad2)*
X192500000Y-66562500D02*
X192500000Y-64250000D01*
X194250000Y-62500000D02*
X197500000Y-62500000D01*
X192500000Y-64250000D02*
X194250000Y-62500000D01*
G04 #@! TD*
M02*
